/* XPM */
static char * arbres_xpm[] = {
"64 64 8 1",
" 	c #ADBC3A",
".	c #141B1B",
"+	c #74A334",
"@	c #7A7A3E",
"#	c #546626",
"$	c #E46D3A",
"%	c #A3754E",
"&	c #965340",
"            ..........                     ..........           ",
"  +      ...+++    +++...               ...+++    +++...        ",
"   +   ..+++++      +++++..   +       ..+++++      +++++..+     ",
"     ..+++    +    +    +++..  +    ..+++    +    +    +++..    ",
"    .+++       +  +       +++.     .+++       +  +       +++.   ",
"   .+++                    +++.   .+++                    +++.  ",
"  .  +                      +  . .  +                      +  . ",
"  .                            . .                            .+",
" .                              .                              .",
" .                              .                              .",
" .+                            +.+                            +.",
"  .+                          +. .+                          +. ",
"  .++                        ++. .++                        ++. ",
" .++    +                +    ++.++    +                +    ++.",
" .+      +              +      +.+      +              +      +.",
" .+  +    +++        +++    +  +.+  +    +++        +++    +  +.",
" .++  ++  +            +  ++  ++.++  ++  +            +  ++  ++.",
"  .@+  ++++            ++++  +@. .@+  ++++            ++++  +@. ",
"  .@++++++++          ++++++++@. .@++++++++          ++++++++@. ",
"   .@+++++@+++ +  + +++@+++++@.   .@+++++@+++ +  + +++@+++++@.  ",
"   .@@+++@@++++++++++++@@+++@@.   .@@+++@@++++++++++++@@+++@@.  ",
"   +..@@@@@@++++++++++@@@@@@..     ..@@@@@@++++++++++@@@@@@..   ",
"    + ..@@@@@@++++++@@@@@@..   +     ..@@@@@@++++++@@@@@@..+    ",
"        .####@@@@@@@@@@$$.      +      .####@@@@@@@@@@$$.   +   ",
"       .%%%&$$%$$$$%$%%$$$.           .%%%&$$%$$$$%$%%$$$.      ",
"      .%%&%%$$$$$$$%$$%$$%$.         .%%&%%$$$$$$$%$$%$$%$.     ",
"      .%&%%%$$$$$$$$%$%$$%$.         .%&%%%$$$$$$$$%$%$$%$.     ",
"       &%%%$$%$$$$$$%$$%%$%           &%%%$$%$$$$$$%$$%%$%      ",
"          %$%$$%%%$$$%$%                 %$%$$%%%$$$%$%         ",
"  +         %$%$$$%$$%        +            %$%$$$%$$%           ",
"   +           %%$$+           +              %%$$ +            ",
"                                                                ",
"            ..........                     ..........           ",
"        +...+++    +++...           +   ...+++    +++...+       ",
"       ..+++++      +++++..        +  ..+++++      +++++..      ",
"     ..+++    +    +    +++..       ..+++    +    +    +++..    ",
"    .+++       +  +       +++.     .+++       +  +       +++.   ",
"   .+++                    +++.   .+++                    +++.  ",
"  .  +                      +  . .  +                      +  . ",
"  .                            . .                            . ",
" .                              .                              .",
" .                              .                              .",
" .+                            +.+                            +.",
"  .+                          +. .+                          +. ",
"  .++                        ++. .++                        ++. ",
" .++    +                +    ++.++    +                +    ++.",
" .+      +              +      +.+      +              +      +.",
" .+  +    +++        +++    +  +.+  +    +++        +++    +  +.",
" .++  ++  +            +  ++  ++.++  ++  +            +  ++  ++.",
"  .@+  ++++            ++++  +@. .@+  ++++            ++++  +@. ",
"  .@++++++++          ++++++++@.+.@++++++++          ++++++++@. ",
"   .@+++++@+++ +  + +++@+++++@.   .@+++++@+++ +  + +++@+++++@.  ",
"   .@@+++@@++++++++++++@@+++@@.   .@@+++@@++++++++++++@@+++@@.  ",
"    ..@@@@@@++++++++++@@@@@@..     ..@@@@@@++++++++++@@@@@@..   ",
"      ..@@@@@@++++++@@@@@@..         ..@@@@@@++++++@@@@@@..     ",
"        .####@@@@@@@@@@$$.             .####@@@@@@@@@@$$.       ",
" +     .%%%&$$%$$$$%$%%$$$.           .%%%&$$%$$$$%$%%$$$.      ",
"  +   .%%&%%$$$$$$$%$$%$$%$. +       .%%&%%$$$$$$$%$$%$$%$.     ",
"      .%&%%%$$$$$$$$%$%$$%$.  +      .%&%%%$$$$$$$$%$%$$%$.     ",
"       &%%%$$%$$$$$$%$$%%$%           &%%%$$%$$$$$$%$$%%$%      ",
"       +  %$%$$%%%$$$%$%                 %$%$$%%%$$$%$%        +",
"      +     %$%$$$%$$%+            +       %$%$$$%$$%         + ",
"               %%$$               +           %%$$+             ",
"                                                                "};
