/* XPM */
static char * cat_face_xpm[] = {
"64 64 279 2",
"  	c #ADBC3A",
". 	c #A5B342",
"+ 	c #868F58",
"@ 	c #919B52",
"# 	c #74A334",
"$ 	c #A0AD47",
"% 	c #646466",
"& 	c #7A805E",
"* 	c #729C3E",
"= 	c #878F58",
"- 	c #9DA383",
"; 	c #D4D4D4",
"> 	c #C6C7C0",
", 	c #9B9B9C",
"' 	c #FFFFFF",
") 	c #E7E7E7",
"! 	c #A8B63F",
"~ 	c #96A14F",
"{ 	c #9EA672",
"] 	c #B6B6B7",
"^ 	c #C4C4C5",
"/ 	c #E9E9EB",
"( 	c #E4E4E6",
"_ 	c #8B8B8E",
": 	c #D9D9DD",
"< 	c #E3E3E5",
"[ 	c #7C9369",
"} 	c #A0A0A3",
"| 	c #BCBCBE",
"1 	c #879058",
"2 	c #8D936E",
"3 	c #9D9DA0",
"4 	c #B2B2B5",
"5 	c #D4D4D6",
"6 	c #7E7E80",
"7 	c #B7B7BB",
"8 	c #C0C0C4",
"9 	c #C6C6C9",
"0 	c #868689",
"a 	c #CCCCD0",
"b 	c #C3C3C7",
"c 	c #A1A1A4",
"d 	c #9EA095",
"e 	c #95A04F",
"f 	c #9BA74B",
"g 	c #889057",
"h 	c #949A77",
"i 	c #B6B6B9",
"j 	c #BABABD",
"k 	c #C6C6CA",
"l 	c #B5B5B9",
"m 	c #D2D2D6",
"n 	c #A8A8AC",
"o 	c #B9B9BD",
"p 	c #BBBBBE",
"q 	c #8D8D90",
"r 	c #8F9184",
"s 	c #81885B",
"t 	c #767678",
"u 	c #A1A1A3",
"v 	c #8D936D",
"w 	c #9C9C9F",
"x 	c #A2A2A6",
"y 	c #B0B0B3",
"z 	c #A3A3A5",
"A 	c #929C52",
"B 	c #719744",
"C 	c #6B8356",
"D 	c #A9A9AC",
"E 	c #D5D5D8",
"F 	c #F0F0F2",
"G 	c #C2C2C6",
"H 	c #979992",
"I 	c #889157",
"J 	c #F7F7F8",
"K 	c #868688",
"L 	c #F4F4F5",
"M 	c #FCFCFC",
"N 	c #E9E9EA",
"O 	c #BABABE",
"P 	c #6E7063",
"Q 	c #929C51",
"R 	c #7D7D7F",
"S 	c #B4B4B8",
"T 	c #B0B0B4",
"U 	c #A2A2A5",
"V 	c #EAEAEC",
"W 	c #DCDCDE",
"X 	c #A7A7AA",
"Y 	c #A6A6A9",
"Z 	c #A6B342",
"` 	c #9B9B9F",
" .	c #B0A29F",
"..	c #E4B59F",
"+.	c #DAB5A5",
"@.	c #C1B5B2",
"#.	c #D6B09F",
"$.	c #989992",
"%.	c #929D51",
"&.	c #C5B0AA",
"*.	c #EB954E",
"=.	c #E7A883",
"-.	c #DDCCC7",
";.	c #E09E74",
">.	c #907C72",
",.	c #E4B292",
"'.	c #E6AC86",
").	c #ECB08C",
"!.	c #F0F0F1",
"~.	c #DADADB",
"{.	c #747476",
"].	c #9B9B9E",
"^.	c #A1A1A5",
"/.	c #B4B4B7",
"(.	c #AFAFB2",
"_.	c #919194",
":.	c #959596",
"<.	c #EFDFD9",
"[.	c #EA9C63",
"}.	c #D0A48A",
"|.	c #9B7A66",
"1.	c #FFAE68",
"2.	c #FBA963",
"3.	c #F0B593",
"4.	c #FBECE5",
"5.	c #F09B55",
"6.	c #E7A168",
"7.	c #899257",
"8.	c #8D946D",
"9.	c #B9A094",
"0.	c #FDAC66",
"a.	c #F7A45E",
"b.	c #F9BE99",
"c.	c #C0C0C3",
"d.	c #E4E4E5",
"e.	c #E7E7E8",
"f.	c #EDEDEF",
"g.	c #DADADC",
"h.	c #C8C8CB",
"i.	c #FDEEE6",
"j.	c #F9A660",
"k.	c #EDAA77",
"l.	c #CBB5AC",
"m.	c #FFC59D",
"n.	c #FFEFE7",
"o.	c #F1B081",
"p.	c #C4BBBA",
"q.	c #EAC8B7",
"r.	c #EFCEBD",
"s.	c #FFE1D0",
"t.	c #FFE9DC",
"u.	c #F3F3F5",
"v.	c #FFF9F5",
"w.	c #FADCCB",
"x.	c #E0C4B8",
"y.	c #CBCBCF",
"z.	c #D4D4D8",
"A.	c #F3F3F4",
"B.	c #E8E8EA",
"C.	c #BDBDBE",
"D.	c #C9C9CA",
"E.	c #EBEBED",
"F.	c #FAFAFB",
"G.	c #E1E1E3",
"H.	c #909093",
"I.	c #848487",
"J.	c #4C474A",
"K.	c #6F6C6F",
"L.	c #B7B7BA",
"M.	c #C7C7CB",
"N.	c #D6D6D8",
"O.	c #F4F4F4",
"P.	c #615F61",
"Q.	c #A5A5A8",
"R.	c #5B595C",
"S.	c #2E1E22",
"T.	c #767375",
"U.	c #CBCBCD",
"V.	c #F1F1F1",
"W.	c #C2C2C5",
"X.	c #3F383A",
"Y.	c #B1B1B5",
"Z.	c #A19EA1",
"`.	c #4C2914",
" +	c #695650",
".+	c #A49B9A",
"++	c #AEA7A8",
"@+	c #D8D8DB",
"#+	c #C3C1C4",
"$+	c #958A89",
"%+	c #6E615E",
"&+	c #B6B6BA",
"*+	c #C5C2C5",
"=+	c #5C3000",
"-+	c #877772",
";+	c #68765D",
">+	c #A7B540",
",+	c #929A66",
"'+	c #C2C1C4",
")+	c #AFA8A9",
"!+	c #B6B0B0",
"~+	c #CBC6C3",
"{+	c #D4D0CF",
"]+	c #EFEFF0",
"^+	c #FBFBFC",
"/+	c #E7E6E7",
"(+	c #C5BFBE",
"_+	c #B5B0B2",
":+	c #BDBDC0",
"<+	c #929489",
"[+	c #99A44D",
"}+	c #717173",
"|+	c #929295",
"1+	c #A0A0A4",
"2+	c #D1D1D4",
"3+	c #D4D4D5",
"4+	c #B7B5B6",
"5+	c #C0BFC0",
"6+	c #E5E5E6",
"7+	c #FBFBFB",
"8+	c #BDBDC1",
"9+	c #89898C",
"0+	c #A4A3A7",
"a+	c #656164",
"b+	c #737375",
"c+	c #98989B",
"d+	c #97979A",
"e+	c #A8A8AB",
"f+	c #B6B6B8",
"g+	c #D8D8DA",
"h+	c #CACACE",
"i+	c #BEBEC2",
"j+	c #8D8C8F",
"k+	c #9E9DA1",
"l+	c #CFCFD2",
"m+	c #D2D2D3",
"n+	c #A3A3A6",
"o+	c #939397",
"p+	c #8E8E91",
"q+	c #AAAAAD",
"r+	c #97979B",
"s+	c #96969A",
"t+	c #929296",
"u+	c #A3A3A7",
"v+	c #949497",
"w+	c #92958A",
"x+	c #98A34D",
"y+	c #A7B541",
"z+	c #909A52",
"A+	c #919968",
"B+	c #939396",
"C+	c #AEAEB0",
"D+	c #EEEEF0",
"E+	c #E1E1E2",
"F+	c #D3D3D4",
"G+	c #707462",
"H+	c #727275",
"I+	c #9F9FA3",
"J+	c #92958B",
"K+	c #909A53",
"L+	c #97A34E",
"M+	c #939395",
"N+	c #ECECEE",
"O+	c #F1F1F2",
"P+	c #C9C9CD",
"Q+	c #B8B8BC",
"R+	c #8F9953",
"S+	c #909868",
"T+	c #93958B",
"U+	c #97A24E",
"V+	c #969E71",
"W+	c #ABABAE",
"X+	c #C3C3C5",
"Y+	c #D7D7D9",
"Z+	c #8F9853",
"`+	c #A4AD78",
" @	c #DBE1BF",
".@	c #CDD3AD",
"+@	c #96A14E",
"                                                                . + + + + + @                                                   ",
"    #                               #                           $ % % % % % &                                                   ",
"      #                               #                     * = - ; ; ; ; ; > = @           #                       #           ",
"                                                            $ % , ' ' ' ' ' ) % &             #                       #         ",
"                                                            ! ~ { ] ] ] ^ / ( ; > = @                                           ",
"                #                               #               $ % % % _ : < ' ) % &                                           ",
"              #                               #                 ! ~ ~ ~ [ } | ' ) % &                   #                       ",
"                                                                      # $ % , ' ) % &                 #                       # ",
"                                                                        $ % , ' ) % &                                           ",
"                                                                        $ % , ' ) % &                                           ",
"                                                                    . 1 2 3 4 / 5 % &                                           ",
"                                                                    $ % 6 7 8 : 9 % &                                           ",
"                                                                    $ % 0 a b c d e f                                           ",
"                                                                    $ % _ : 9 % &                                               ",
"                                                                . g h i j k l % &                                               ",
"                                                                $ % _ : m 7 n % &                                               ",
"                                                            . g h i o k p q r e f                                               ",
"                  #                 #                       $ % _ : m 7 n % &                                                   ",
"                #                     #             . g g g s % t c 3 q u % f               #                                   ",
"                                                    $ % % % % % % % % % , %                   #                                 ",
"                                                . g v w x l l l l l y w z % A                                                   ",
"      #                                         B % 6 7 8 : : : : : m 7 n % &                                                   ",
"        #                                   . C v w D a E F F F F F / a G w H I A                       #             #         ",
"                                            $ % 6 7 8 : < ' ' ' ' ' J : m 7 n % &                     #                 #       ",
"                                        . I s % K a E F L ' ' ' ' ' M F N a O % P I Q                                           ",
"                                        $ % % % _ : < ' ' ' ' ' ' ' ' ' J : 9 % % % &                                           ",
"                                        $ % R S T U i V V V V V V V V V W U X S Y % &                                           ",
"                                        $ % _ : 9 % _ : : : : : : : : : 9 % _ : 9 % &                                           ",
"                                    Z I v `  ...+.S T x x x x x x x x x X S @...#.` $.I %.                                      ",
"    #                               B % 6 7 &.*.=.: 9 % % % % % % % % % _ : -.*.;.7 n % &   #       #                           ",
"      #                             $ % >.,.'.*.).!.~.% {.].^./.(.]._.% :.!.<.*.[.,.}.% &     #       #                         ",
"                                    $ % |.1.2.*.3.' ) % 6 7 8 : m 7 n % , ' 4.*.5.1.6.% &                                       ",
"                                Z 7.8.].9.1.0.a.b.' !./.c.d.e.!.f.d.g./.h.' i.a.j.1.k.].H 7.%.                                  ",
"                #               $ % 6 7 l.1.1.1.m.' J : < ' ' ' ' ' J : < ' n.1.1.1.o.7 n % &                   #               ",
"              #                 $ % 6 7 p.q.r.s.t.' M !.u.' ' ' ' ' M !.u.' v.s.w.q.x.7 n % &                 #                 ",
"                                $ % 6 7 8 : < ' ' ' ' ' ' ' ' ' ' ' ' ' ' ' ' ' J : m 7 n % &                                   ",
"                                $ % K y.z.!.A.' ' ' ' ' ' ' ' ' ' ' ' ' ' ' ' ' M !.B.y.O % &                                   ",
"                                $ % _ : < ' ' ' ' ' ' ' ' ' ' ' ' ' ' ' ' ' ' ' ' ' J : 9 % &                                   ",
"                                $ % _ : < ' ' ' ' ' ' ' ' ' ' ' ' ' ' ' ' ' ' ' ' ' J : 9 % &                                   ",
"                                $ % _ : < ' ' ' ' ' ' ' ' ' ' ' ' ' ' ' ' ' ' ' ' ' J : 9 % &                                   ",
"                                $ % _ : : g.5 C.C.C.D.E.!.' ' ' ' ' F.E.G.C.C.C.^ g.g.: 9 % &                                   ",
"                                $ % _ : m 7 n % % % _ : < ' ' ' ' ' J : 9 % % % 6 7 8 : 9 % &                                   ",
"                                $ % _ : y.H.I.J.K.4 L.M.N.' ' ' ' ' O.M.G 4 c J.P.H.Q.: 9 % &                                   ",
"                                $ % _ : 9 % R.S.T.: m 7 U.' ' ' ' ' V.7 8 : W.S.X.% _ : 9 % &                                   ",
"                                $ % I.M.G Y.Z.`. +.+++y.@+' ' ' ' ' L y.#+.+$+`.%+Y.L.M.&+% &                                   ",
"                  #             $ % 6 7 8 : *+=+=+=+-+: < ' ' ' ' ' J : *+=+=+=+-+: m 7 n % ;+                    #             ",
"                #               >+Q ,+_.} M.'+)+!+~+{+]+A.' ' ' ' ' ^+]+/+~+(+)+_+M.:+_.<+Q [+#                 #               ",
"                                    $ % 6 7 8 : < ' ' ' ' ' ' ' ' ' ' ' ' ' J : m 7 n % &                                       ",
"                                    $ % }+|+1+M.2+E.F ' J W 3+4+5+W 6+' 7+E.( M.8+|+9+% &                                       ",
"      #                             $ % % % 6 7 8 : < ' V.7 0+S.a+7 U.' J : m 7 n % % % &             #                         ",
"        #                           $ % b+c+d+|+d+e+f+W g+h+i+j+k+h+l+W m+e+n+|+o+c+p+% &               #                       ",
"                                    $ % 6 7 n % % % 6 7 8 : m 7 8 : m 7 n % % % 6 7 n % &                                       ",
"                                    $ % 6 7 l (.q+r+s+t+c+e+u+t+c+e+u+t+v+r+r+r+s+t+w+@ x+                                      ",
"                                    $ % 6 7 8 : m 7 n % % % % % % % % % 6 7 7 7 n % &                                           ",
"                                    y+z+A+B+C+D+E.E+F+d+q % G+z+g % H+d+I+7 7 7 n % &                                           ",
"                                        $ % , ' ' ' V.7 n % &   $ % 6 7 7 7 7 7 n % &                                           ",
"  #                               #     $ % , ' ' ' V.7 n % &   $ % 6 7 7 7 y o+J+K+L+                            #             ",
"    #                               #   $ % , ' ' ' V.7 n % &   $ % 6 7 7 7 n % &         #                         #           ",
"                                        $ % M+N+O+' L P+Q+% ;+  y+R+S+v+v+v+T+R+U+          #                                   ",
"                                        $ % _ : < ' J : 9 % &       $ % % % &                                                   ",
"              #                         y+R+V+W+X+' 7+f.Y+% &       y+R+R+R+U+                                                # ",
"            #                               B % , ' ' ' ) % &         #                               #                     #   ",
"                                            y+Z+`+ @ @ @.@Z++@      #                               #                           ",
"                                                                                                                                "};
