/* XPM */
static char * cat_55H_xpm[] = {
"64 64 460 2",
"  	c #ADBC3A",
". 	c #74A334",
"+ 	c #A7B541",
"@ 	c #8F9856",
"# 	c #7C8161",
"$ 	c #7B8161",
"% 	c #7B8061",
"& 	c #878E5B",
"* 	c #A2AF47",
"= 	c #A2AF3C",
"- 	c #9AA45F",
"; 	c #AAAD9C",
"> 	c #B4B4B5",
", 	c #B5B5B6",
"' 	c #B5B5B5",
") 	c #AEB0A7",
"! 	c #9CA471",
"~ 	c #6C943A",
"{ 	c #ABBA3A",
"] 	c #ACBB3A",
"^ 	c #A8B640",
"/ 	c #919C54",
"( 	c #939587",
"_ 	c #D1D2D0",
": 	c #EFEFF0",
"< 	c #EEEEEF",
"[ 	c #EDEDEE",
"} 	c #EEEEEE",
"| 	c #F1F1F2",
"1 	c #E1E1E1",
"2 	c #A3A6A1",
"3 	c #8D9562",
"4 	c #A5B247",
"5 	c #A2B041",
"6 	c #929B5A",
"7 	c #9DA08E",
"8 	c #B6B6B9",
"9 	c #D1D1D4",
"0 	c #D8D8DA",
"a 	c #C9C9C9",
"b 	c #C1C1C1",
"c 	c #C7C7C7",
"d 	c #DFDFE0",
"e 	c #E8E8E9",
"f 	c #D4D4D5",
"g 	c #B7B9AE",
"h 	c #979F6D",
"i 	c #9CA943",
"j 	c #ACBB3B",
"k 	c #9DA945",
"l 	c #858B64",
"m 	c #A6A7A3",
"n 	c #C3C3C6",
"o 	c #BBBBBF",
"p 	c #A5A6A5",
"q 	c #888B7E",
"r 	c #797D66",
"s 	c #858878",
"t 	c #B1B2AF",
"u 	c #D7D7DA",
"v 	c #D8D8D8",
"w 	c #8A8C85",
"x 	c #8C9749",
"y 	c #ABBA3C",
"z 	c #A7B63E",
"A 	c #9DA94F",
"B 	c #989E7A",
"C 	c #949495",
"D 	c #8A8A8D",
"E 	c #888C79",
"F 	c #949F56",
"G 	c #99A63F",
"H 	c #98A450",
"I 	c #939879",
"J 	c #B1B1B2",
"K 	c #EAEAEB",
"L 	c #DBDBDB",
"M 	c #8A8B87",
"N 	c #8A944A",
"O 	c #ABB93D",
"P 	c #98A44C",
"Q 	c #808859",
"R 	c #7C835C",
"S 	c #8C9554",
"T 	c #A6B342",
"U 	c #A9B73F",
"V 	c #858E4F",
"W 	c #929292",
"X 	c #DADADB",
"Y 	c #D2D2D3",
"Z 	c #878983",
"` 	c #8B964B",
" .	c #A8B73E",
"..	c #A4B142",
"+.	c #A3B043",
"@.	c #A6B441",
"#.	c #858E51",
"$.	c #8A8A8B",
"%.	c #C9C9CC",
"&.	c #C1C1C4",
"*.	c #82837F",
"=.	c #8C964D",
"-.	c #A9B83D",
";.	c #858E4E",
">.	c #868686",
",.	c #C2C2C6",
"'.	c #BCBCBF",
").	c #80817D",
"!.	c #8D974D",
"~.	c #ACBA3B",
"{.	c #A5B246",
"].	c #8B9362",
"^.	c #919293",
"/.	c #B9B9BD",
"(.	c #7F807C",
"_.	c #8D974E",
":.	c #9EAB43",
"<.	c #8F9763",
"[.	c #A5A89D",
"}.	c #BBBBBE",
"|.	c #C3C3C7",
"1.	c #ACACAF",
"2.	c #797A78",
"3.	c #8C964F",
"4.	c #A5B341",
"5.	c #A1AE44",
"6.	c #9FAC45",
"7.	c #89934F",
"8.	c #767870",
"9.	c #A6A6A9",
"0.	c #C0C0C3",
"a.	c #B2B2B6",
"b.	c #9A9C98",
"c.	c #83886C",
"d.	c #95A14B",
"e.	c #8F9854",
"f.	c #7C815E",
"g.	c #7B805F",
"h.	c #727561",
"i.	c #6A6A6B",
"j.	c #7F7F82",
"k.	c #8B8B8D",
"l.	c #838386",
"m.	c #8A8F71",
"n.	c #9CA851",
"o.	c #A7B53F",
"p.	c #A3B13F",
"q.	c #96A155",
"r.	c #8C907A",
"s.	c #8D8D90",
"t.	c #969699",
"u.	c #9A9A9D",
"v.	c #959598",
"w.	c #8C8C8F",
"x.	c #8C9178",
"y.	c #719052",
"z.	c #A4B23F",
"A.	c #A9B740",
"B.	c #929C54",
"C.	c #828575",
"D.	c #9FA0A0",
"E.	c #CCCCD0",
"F.	c #D2D2D6",
"G.	c #D2D2D5",
"H.	c #9E9FA0",
"I.	c #A4B241",
"J.	c #939D56",
"K.	c #8E937B",
"L.	c #9C9C9F",
"M.	c #D4D4D7",
"N.	c #E9E9EB",
"O.	c #F0F0F1",
"P.	c #EFEFF1",
"Q.	c #A7B540",
"R.	c #6C8C4A",
"S.	c #777B66",
"T.	c #BCBCC0",
"U.	c #D3D3D6",
"V.	c #E7E7E9",
"W.	c #F8F8F9",
"X.	c #FEFEFE",
"Y.	c #949F4C",
"Z.	c #6D8951",
"`.	c #757A5B",
" +	c #6D6E6B",
".+	c #A2A2A6",
"++	c #EAEAEC",
"@+	c #F7F7F8",
"#+	c #FFFFFF",
"$+	c #8F9953",
"%+	c #7D835B",
"&+	c #737376",
"*+	c #8E8F92",
"=+	c #AAAAAE",
"-+	c #C7C7CA",
";+	c #E6E6E8",
">+	c #F6F6F7",
",+	c #A2AF45",
"'+	c #7E845E",
")+	c #929193",
"!+	c #BEBCBF",
"~+	c #AEADAF",
"{+	c #C6C6C9",
"]+	c #DFDFE2",
"^+	c #929C60",
"/+	c #8E9385",
"(+	c #B0A2A0",
"_+	c #D7BAB0",
":+	c #C7B3AD",
"<+	c #A7A4A7",
"[+	c #ABACAF",
"}+	c #B2B2B5",
"|+	c #B1B1B5",
"1+	c #B1B1B4",
"2+	c #B0B0B4",
"3+	c #A9B83E",
"4+	c #8B9552",
"5+	c #808176",
"6+	c #A9A2A0",
"7+	c #CCAA9C",
"8+	c #E3A27A",
"9+	c #E3BDAC",
"0+	c #CECBCC",
"a+	c #9EA0A3",
"b+	c #767678",
"c+	c #7A7A7C",
"d+	c #7F7F81",
"e+	c #818183",
"f+	c #AAB83D",
"g+	c #859053",
"h+	c #87776E",
"i+	c #CBA188",
"j+	c #E8A87E",
"k+	c #EB9D65",
"l+	c #F0CBB9",
"m+	c #E5E2E1",
"n+	c #A4A6A8",
"o+	c #6F6F71",
"p+	c #8E8E91",
"q+	c #A4A4A8",
"r+	c #AEAEB1",
"s+	c #A0AD4B",
"t+	c #89936A",
"u+	c #9E8778",
"v+	c #E3A26F",
"w+	c #FAA65D",
"x+	c #F2A365",
"y+	c #F8D5C3",
"z+	c #F2EFEE",
"A+	c #BABCBE",
"B+	c #9A9A9C",
"C+	c #DCDCDF",
"D+	c #74A235",
"E+	c #9BA847",
"F+	c #858C63",
"G+	c #929791",
"H+	c #BAA79F",
"I+	c #ECAC7F",
"J+	c #FEAA5F",
"K+	c #FBAE70",
"L+	c #FEDAC6",
"M+	c #F8F5F4",
"N+	c #DADBDE",
"O+	c #D0D0D3",
"P+	c #F3F3F4",
"Q+	c #F6F6F6",
"R+	c #75776D",
"S+	c #97999D",
"T+	c #C2B7B4",
"U+	c #E5BCA6",
"V+	c #F7C2A1",
"W+	c #FECFB1",
"X+	c #FFE9DC",
"Y+	c #FCFAF9",
"Z+	c #F0F0F2",
"`+	c #EEEEF0",
" @	c #FBFBFC",
".@	c #949F4B",
"+@	c #76786C",
"@@	c #999A9D",
"#@	c #BFBDC0",
"$@	c #D7CFCF",
"%@	c #EBE1DE",
"&@	c #FBF3EF",
"*@	c #FFFBF9",
"=@	c #FCFCFD",
"-@	c #FCFCFC",
";@	c #949F4A",
">@	c #787B6F",
",@	c #A5A5A8",
"'@	c #CECED2",
")@	c #E4E5E8",
"!@	c #F3F4F6",
"~@	c #FDFEFF",
"{@	c #939E4A",
"]@	c #7A7C72",
"^@	c #AFAFB3",
"/@	c #DDDDE0",
"(@	c #F5F5F6",
"_@	c #939E49",
":@	c #7B7D72",
"<@	c #EBEBEC",
"[@	c #ECECED",
"}@	c #E6E6E6",
"|@	c #E3E3E3",
"1@	c #F9F9F9",
"2@	c #FDFDFE",
"3@	c #D4D4D8",
"4@	c #CDCDD0",
"5@	c #B8B8BA",
"6@	c #9D9D9E",
"7@	c #929293",
"8@	c #A2A2A4",
"9@	c #CBCBCD",
"0@	c #FAFAFA",
"a@	c #B3B3B6",
"b@	c #AEAEB2",
"c@	c #828285",
"d@	c #5F5D60",
"e@	c #7B7B7E",
"f@	c #A4A4A7",
"g@	c #BDBDC1",
"h@	c #DADADC",
"i@	c #C8C8CC",
"j@	c #9D9DA0",
"k@	c #686567",
"l@	c #534C4D",
"m@	c #989598",
"n@	c #C5C4C7",
"o@	c #C3C2C6",
"p@	c #D1D1D3",
"q@	c #F4F4F5",
"r@	c #939E4B",
"s@	c #BABABD",
"t@	c #999596",
"u@	c #63504B",
"v@	c #796864",
"w@	c #A39B9A",
"x@	c #BDBABD",
"y@	c #D9D9DC",
"z@	c #99A548",
"A@	c #818666",
"B@	c #969793",
"C@	c #B3B3B7",
"D@	c #C9C9CD",
"E@	c #BCB9BB",
"F@	c #8F827F",
"G@	c #84716A",
"H@	c #9D918D",
"I@	c #C9C6C7",
"J@	c #E8E8EB",
"K@	c #A7B63F",
"L@	c #9DA94E",
"M@	c #8C936D",
"N@	c #919192",
"O@	c #C2C1C4",
"P@	c #C3C0C2",
"Q@	c #D1CECE",
"R@	c #E2E0DF",
"S@	c #EFEEEE",
"T@	c #889153",
"U@	c #737472",
"V@	c #929296",
"W@	c #CDCDD1",
"X@	c #E4E4E7",
"Y@	c #F5F6F7",
"Z@	c #FBFBFB",
"`@	c #EFEFEF",
" #	c #E2E2E2",
".#	c #DADADA",
"+#	c #A9B73E",
"@#	c #8A9255",
"##	c #696A69",
"$#	c #737375",
"%#	c #929295",
"&#	c #B5B5B8",
"*#	c #A7A6A9",
"=#	c #888687",
"-#	c #899255",
";#	c #70716F",
">#	c #868689",
",#	c #9E9EA2",
"'#	c #DCDCDE",
")#	c #929194",
"!#	c #7C7C7B",
"~#	c #A6A6AA",
"{#	c #A8A8AB",
"]#	c #848486",
"^#	c #767679",
"/#	c #848487",
"(#	c #C0C0C4",
"_#	c #879051",
":#	c #828383",
"<#	c #B9B9BC",
"[#	c #C1C1C5",
"}#	c #9B9B9E",
"|#	c #8F8F92",
"1#	c #97979A",
"2#	c #858686",
"3#	c #88888A",
"4#	c #6B6D65",
"5#	c #777C5F",
"6#	c #7C825E",
"7#	c #7B815F",
"8#	c #D9D9DD",
"9#	c #D3D3D7",
"0#	c #C8C8CB",
"a#	c #87878A",
"b#	c #777C5E",
"c#	c #96A24B",
"d#	c #A1AF43",
"e#	c #A0AE45",
"f#	c #858685",
"g#	c #DFDFE3",
"h#	c #DADADD",
"i#	c #BEBEC2",
"j#	c #7C825D",
"k#	c #A2B043",
"l#	c #868786",
"m#	c #C4C4C7",
"n#	c #ECECEE",
"o#	c #A2AF43",
"p#	c #868F4F",
"q#	c #8D8D8D",
"r#	c #D4D4D6",
"s#	c #98989B",
"t#	c #909090",
"u#	c #DCDCDC",
"v#	c #A1AE43",
"w#	c #868F50",
"x#	c #898989",
"y#	c #CCCCCE",
"z#	c #FDFDFD",
"A#	c #A8A8A9",
"B#	c #AAB93D",
"C#	c #94A04A",
"D#	c #8F9476",
"E#	c #AFB0AE",
"F#	c #C9C9CB",
"G#	c #D9D9DA",
"H#	c #DFDFDF",
"I#	c #D5D5D4",
"J#	c #A7AA9A",
"K#	c #8D9754",
"L#	c #A5B340",
"M#	c #A9B73D",
"N#	c #9FAB53",
"O#	c #8D9274",
"P#	c #8D8E8B",
"Q#	c #8F8F8E",
"R#	c #929586",
"S#	c #9DA764",
"T#	c #ABBA3B",
"U#	c #A8B73D",
"V#	c #88924F",
"W#	c #88914D",
"X#	c #86904D",
"Y#	c #8D974A",
"Z#	c #A2B040",
"`#	c #AAB83E",
"                                                                                                                                ",
"    .                               .                                                                                           ",
"      .                               .                     .                               .                       .           ",
"                                                              .                               .                       .         ",
"                                                                                                                                ",
"                .                               .     + @ # $ # # % & *                                                         ",
"              .                               .     = - ; > , , , ' ) ! ~ {                             .                       ",
"                                                ] ^ / ( _ : < [ } | 1 2 3 4 ]                         .                       . ",
"                                                5 6 7 8 9 0 a b c d e f g h i j                                                 ",
"                                                k l m n o p q r s t u | v w x y                                                 ",
"                                                z A B C D E F G H I J K L M N O                                                 ",
"                                                  y P Q R S T   U V W X Y Z ` O                                                 ",
"                                                     ...+.@.y   U #.$.%.&.*.=.O                                                 ",
"                                                                -.;.>.,.'.).!.O                                                 ",
"                                                              ~.{.].^.n /.(._.O                                                 ",
"                                                              :.<.[.}.|.1.2.3.O                                                 ",
"                                                      j 4.5.6.7.8.9.0.a.b.c.d.y                                                 ",
"                  .                 .                 ^ e.f.g.h.i.j.k.l.m.n.o.j                                                 ",
"                .                     .             p.q.r.s.t.u.u.u.v.w.x.y.z.              .                                   ",
"                                                  A.B.C.D.}.E.F.G.F.E.}.H.C.B.A.              .                                 ",
"                                                I.J.K.L./.M.N.O.P.O.N.M./.L.K.J.I.                                              ",
"      .                                     j Q.R.S.v.T.U.V.W.X.X.X.W.V.U.T.v.S.Y.Q.j                                           ",
"        .                                   @.Z.`. +.+G.++@+X.#+#+#+X.@+++G..+ +`.$+@.                  .             .         ",
"                                            +.%+&+*+=+-+;+>+>+>+>+>+>+>+;+-+=+*+&+%++.                .                 .       ",
"                                            ,+'+)+!+~+u.{+]+]+]+]+]+]+]+{+u.~+!+)+'+,+                                          ",
"                                        y 6.^+/+(+_+:+<+[+}+|+1+2+1+|+}+[+<+:+_+(+/+^+6.y                                       ",
"                                        3+4+5+6+7+8+9+0+a+b+c+d+e+d+c+b+a+0+9+8+7+6+5+4+3+                                      ",
"                                        f+g+h+i+j+k+l+m+n+o+p+q+r+q+p+o+n+m+l+k+j+i+h+g+f+                                      ",
"                                      -.s+t+u+v+w+x+y+z+A+B+'.U.C+U.'.B+A+z+y+x+w+v+u+t+s+-.                                    ",
"    .                               D+E+F+G+H+I+J+K+L+M+N+O+e P+Q+P+e O+N+M+L+K+J+I+H+G+F+E+D+      .                           ",
"      .                             j R.R+S+T+U+V+W+X+Y+Z+`+ @#+#+#+ @`+Z+Y+X+W+V+U+T+S+R+Y.j .       .                         ",
"                                    j .@+@@@#@$@%@&@*@X.=@-@X.#+#+#+X.-@=@X.*@&@%@$@#@@@+@.@j                                   ",
"                                    j ;@>@,@'@)@!@~@#+#+#+#+#+#+#+#+#+#+#+#+#+~@!@)@'@,@>@;@j                                   ",
"                .                   j {@]@^@/@(@X.#+#+#+#+#+#+#+#+#+#+#+#+#+#+#+X.(@/@^@]@{@j                   .               ",
"              .                     j _@:@1+]+@+#+#+#+#+#+#+#+#+#+#+#+#+#+#+#+#+#+@+]+1+:@_@j                 .                 ",
"                                    j _@:@1+C+<@[@}@|@}@O.1@2@#+#+#+2@1@O.}@|@}@[@<@C+1+:@_@j                                   ",
"                                    j _@:@}+3@4@5@6@7@8@9@N.0@#+#+#+0@N.9@8@7@6@5@4@3@}+:@_@j                                   ",
"                                    j _@:@a@'@b@c@d@e@f@g@h@>+#+#+#+>+h@g@f@e@d@c@b@'@a@:@_@j                                   ",
"                                    j {@]@|+i@j@k@l@m@n@o@p@q@#+#+#+q@p@o@n@m@l@k@j@i@|+]@{@j                                   ",
"                                    j r@8.,@n s@t@u@v@w@x@y@>+#+#+#+>+y@x@w@v@u@t@s@n ,@8.r@j                                   ",
"                                    j z@A@B@C@D@E@F@G@H@I@J@0@#+#+#+0@J@I@H@G@F@E@D@C@B@A@z@j                                   ",
"                                      K@L@M@N@C@O@P@Q@R@S@W.2@#+#+#+2@W.S@R@Q@P@O@C@N@M@L@K@                                    ",
"                                        3+T@U@V@a.W@X@Y@2@Z@`@ #.# #`@Z@2@Y@X@W@a.V@U@T@3+                                      ",
"                                        +#@###$#%#&#E.]+P+O.O+*#=#*#O+O.P+]+E.&#%#$###@#+#                                      ",
"                                        U -#;#>#%#v.,#}+p@'#4@b@)#b@4@'#p@}+,#v.%#>#;#-#U                                       ",
"                  .                 .   U T@!#~#{#]#^#/#f@'.%.(#|+(#%.'.f@/#^#]#{#~#!#T@U   .                     .             ",
"                .                     . U _#:#<#[#9.j@}#|#s.1#v.p+v.1#s.|#}#j@9.[#<#:#_#U     .                 .               ",
"                                        U _#2#[#F.|.T.^@3#4#5#6#7#6#5#4#3#^@T.|.F.[#2#_#U                                       ",
"                                        U _#2#[#8#9#0#|+a#b#c#d#e#d#c#b#a#|+0#9#8#[#2#_#U                                       ",
"      .                                 U _#f#&.g#;+h#i#p+j#k#.     k#j#p+i#h#;+g#&.f#_#U             .                         ",
"        .                               U _#l#m#J@>+n#'@t.j#o#  .   o#j#t.'@n#>+J@m#l#_#U               .                       ",
"                                        U p#q#r#@+-@P.9 s#j#o#      o#j#s#9 P.-@@+r#q#p#U                                       ",
"                                        U p#t#u#=@2@P+u L.j#v#      v#j#L.u P+2@=@u#t#p#U                                       ",
"                                        U w#x#y#O.-@z#K A#j#v#      v#j#A#K z#-@O.y#x#w#U                                       ",
"                                        B#C#D#E#F#G#H#I#J#K#L#      L#K#J#I#H#G#F#E#D#C#B#                                      ",
"                                        j M#N#O#l#P#Q#R#S#@.T#      T#@.S#R#Q#P#l#O#N#M#j                                       ",
"  .                               .         U#C#V#W#X#Y#Z#              Z#Y#X#W#V#C#U#                            .             ",
"    .                               .       j B#`#`#`#B#j .             j B#`#`#`#B#j     .                         .           ",
"                                                            .                               .                                   ",
"                                                                                                                                ",
"              .                               .                                                                               . ",
"            .                               .                         .                               .                     .   ",
"                                                                    .                               .                           ",
"                                                                                                                                "};
