/* XPM */
static char * cat_left_55H_xpm[] = {
"64 64 711 2",
"  	c #ADBC3A",
". 	c #74A334",
"+ 	c #ACBB3B",
"@ 	c #A6B53D",
"# 	c #98A444",
"$ 	c #9EAB41",
"% 	c #ACBB3A",
"& 	c #ADBB3A",
"* 	c #ABB93C",
"= 	c #9FAB54",
"- 	c #8A906F",
"; 	c #939B65",
"> 	c #A7B445",
", 	c #ABBA3C",
"' 	c #A9B73E",
") 	c #A9B73F",
"! 	c #AAB93D",
"~ 	c #A9B73B",
"{ 	c #949F44",
"] 	c #9EA485",
"^ 	c #C2C3BF",
"/ 	c #B5B8AC",
"( 	c #929B62",
"_ 	c #9EAC3D",
": 	c #ABBA3B",
"< 	c #9AA645",
"[ 	c #87904D",
"} 	c #858E4E",
"| 	c #949F48",
"1 	c #A9B73D",
"2 	c #ADBC3B",
"3 	c #A9B73C",
"4 	c #A1AD53",
"5 	c #969B7C",
"6 	c #B7B2B0",
"7 	c #E8DFDB",
"8 	c #D3CBC8",
"9 	c #94958B",
"0 	c #959E60",
"a 	c #A5B344",
"b 	c #AAB83B",
"c 	c #A3B04B",
"d 	c #9AA176",
"e 	c #92928E",
"f 	c #919190",
"g 	c #979C7E",
"h 	c #A1AD54",
"i 	c #A8B73B",
"j 	c #95A146",
"k 	c #94997B",
"l 	c #C6C8C4",
"m 	c #E5D7D1",
"n 	c #EEC5B0",
"o 	c #DFBFB0",
"p 	c #C0BBBB",
"q 	c #9C9F93",
"r 	c #8B945A",
"s 	c #A2B042",
"t 	c #9BA843",
"u 	c #8E956A",
"v 	c #BCBEB5",
"w 	c #DEDEDE",
"x 	c #E0E0E0",
"y 	c #C8C9C4",
"z 	c #959A7B",
"A 	c #949F45",
"B 	c #A8B63E",
"C 	c #9BA748",
"D 	c #7C8452",
"E 	c #87827E",
"F 	c #D7C7C1",
"G 	c #F8D5C2",
"H 	c #F3AF82",
"I 	c #EEC1A9",
"J 	c #DFD9D9",
"K 	c #A7A9AC",
"L 	c #797D62",
"M 	c #9DAA43",
"N 	c #929D48",
"O 	c #7D7F74",
"P 	c #BFBFC0",
"Q 	c #EDEDEE",
"R 	c #F5F5F6",
"S 	c #E1E1E2",
"T 	c #B6B6B5",
"U 	c #9FA584",
"V 	c #9FAA53",
"W 	c #A7B53D",
"X 	c #9CA74D",
"Y 	c #7E8461",
"Z 	c #6A6F68",
"` 	c #887871",
" .	c #D09F83",
"..	c #F3AE80",
"+.	c #FAAE72",
"@.	c #FDD3BA",
"#.	c #F1ECEA",
"$.	c #B6B8BA",
"%.	c #7E836A",
"&.	c #9CA847",
"*.	c #6C8D47",
"=.	c #797C6D",
"-.	c #A2A2A4",
";.	c #C7C7CA",
">.	c #D8D8DB",
",.	c #E4E4E6",
"'.	c #E9E9E9",
").	c #C2C3BE",
"!.	c #888D6D",
"~.	c #98A544",
"{.	c #9DAA46",
"].	c #919C4C",
"^.	c #909A4C",
"/.	c #8F966B",
"(.	c #90918E",
"_.	c #98999D",
":.	c #B2AAA9",
"<.	c #DEC0B2",
"[.	c #F7C2A3",
"}.	c #FEB67E",
"|.	c #FFD7BD",
"1.	c #F9F4F1",
"2.	c #D1D2D4",
"3.	c #A4A69F",
"4.	c #969E6E",
"5.	c #9CA848",
"6.	c #AAB83D",
"7.	c #A0AD44",
"8.	c #70895A",
"9.	c #8F9381",
"0.	c #9A9A9D",
"a.	c #A9A9AC",
"b.	c #D0D0D2",
"c.	c #F4F4F4",
"d.	c #CCCCCD",
"e.	c #7E8076",
"f.	c #939F46",
"g.	c #ACBA3B",
"h.	c #A4B246",
"i.	c #8C9460",
"j.	c #787A6F",
"k.	c #7B7C75",
"l.	c #939492",
"m.	c #B3B3B5",
"n.	c #C8C8CC",
"o.	c #DCDBDE",
"p.	c #F2F0F0",
"q.	c #FDE8DD",
"r.	c #FCC49F",
"s.	c #FED7C0",
"t.	c #FBF7F4",
"u.	c #E8E9EC",
"v.	c #C5C5C8",
"w.	c #8F908D",
"x.	c #858D55",
"y.	c #A6B441",
"z.	c #A6B443",
"A.	c #8F985B",
"B.	c #76796C",
"C.	c #717271",
"D.	c #AEAEAF",
"E.	c #E9E9EA",
"F.	c #C9C9CA",
"G.	c #7F8274",
"H.	c #949F46",
"I.	c #9DAA44",
"J.	c #8C945E",
"K.	c #919487",
"L.	c #A0A0A3",
"M.	c #AEAEB2",
"N.	c #BCBCC0",
"O.	c #CCCCD0",
"P.	c #E1E1E4",
"Q.	c #F3F3F4",
"R.	c #FCFDFE",
"S.	c #F9F2EF",
"T.	c #EED5CA",
"U.	c #F3E1DA",
"V.	c #FAF8F8",
"W.	c #ECECEF",
"X.	c #C9C9CD",
"Y.	c #8D8D8F",
"Z.	c #7F8755",
"`.	c #A6B440",
" +	c #A1AE44",
".+	c #8C974E",
"++	c #70755B",
"@+	c #9D9D9F",
"#+	c #D8D8DA",
"$+	c #BCBCBE",
"%+	c #7C7F71",
"&+	c #94A047",
"*+	c #AAB93C",
"=+	c #A3B046",
"-+	c #919A60",
";+	c #878882",
">+	c #A6A6A9",
",+	c #C4C4C8",
"'+	c #D8D8DC",
")+	c #E0E0E3",
"!+	c #E2E2E5",
"~+	c #F1F1F2",
"{+	c #FDFDFE",
"]+	c #FFFFFF",
"^+	c #F7F7F7",
"/+	c #E8E7E9",
"(+	c #EFEEEF",
"_+	c #FAFAFB",
":+	c #F0F0F1",
"<+	c #D2D2D5",
"[+	c #878D6B",
"}+	c #9EAA4E",
"|+	c #A3B043",
"1+	c #7D845A",
"2+	c #969699",
"3+	c #CACACE",
"4+	c #B1B1B4",
"5+	c #7A7D6F",
"6+	c #95A048",
"7+	c #878F5B",
"8+	c #8E9185",
"9+	c #A8A8AB",
"0+	c #C1C1C5",
"a+	c #D9D9DD",
"b+	c #EFEFF0",
"c+	c #F7F7F8",
"d+	c #FBFBFB",
"e+	c #FCFDFD",
"f+	c #F7F8F9",
"g+	c #FDFEFE",
"h+	c #BFBFC1",
"i+	c #989994",
"j+	c #858B69",
"k+	c #96A24B",
"l+	c #A4B142",
"m+	c #7E845A",
"n+	c #B0B0B3",
"o+	c #797C6F",
"p+	c #9BA846",
"q+	c #767A63",
"r+	c #959598",
"s+	c #C2C2C6",
"t+	c #DADADD",
"u+	c #ECECEE",
"v+	c #D5D5D8",
"w+	c #A8A8AC",
"x+	c #787975",
"y+	c #8B954D",
"z+	c #A2B03E",
"A+	c #99A35C",
"B+	c #989B89",
"C+	c #ADADB0",
"D+	c #C5C5C9",
"E+	c #777A6E",
"F+	c #95A04A",
"G+	c #9AA64A",
"H+	c #7C806A",
"I+	c #A4A4A7",
"J+	c #EEEEF0",
"K+	c #FEFEFE",
"L+	c #F8F8F9",
"M+	c #E1E1E3",
"N+	c #B8B8BC",
"O+	c #838482",
"P+	c #8D9755",
"Q+	c #A8B740",
"R+	c #ABB93D",
"S+	c #A8B641",
"T+	c #909A55",
"U+	c #8D9082",
"V+	c #B9B9BB",
"W+	c #BBBBBF",
"X+	c #99999C",
"Y+	c #797C69",
"Z+	c #97A24A",
"`+	c #9AA54B",
" @	c #8F9669",
".@	c #959791",
"+@	c #C1C1C4",
"@@	c #EBEBEC",
"#@	c #FBFBFC",
"$@	c #E4E4E7",
"%@	c #CBCBCE",
"&@	c #B0B0B1",
"*@	c #9BA086",
"=@	c #8E9854",
"-@	c #8C974A",
";@	c #8D974D",
">@	c #8E984E",
",@	c #8E984F",
"'@	c #909A4E",
")@	c #9FAB45",
"!@	c #A2AF3D",
"~@	c #939D57",
"{@	c #9CA08D",
"]@	c #AFAFB3",
"^@	c #C3C3C7",
"/@	c #BEBEC1",
"(@	c #9F9FA2",
"_@	c #8F937E",
":@	c #929B58",
"<@	c #A2AF43",
"[@	c #A5B242",
"}@	c #828A58",
"|@	c #858684",
"1@	c #D9D9DB",
"2@	c #F5F5F5",
"3@	c #F3F3F3",
"4@	c #F8F8F8",
"5@	c #FCFCFC",
"6@	c #D2D2D6",
"7@	c #848581",
"8@	c #7C7D78",
"9@	c #7F807A",
"0@	c #7D7E78",
"a@	c #797B74",
"b@	c #757673",
"c@	c #797B71",
"d@	c #90995E",
"e@	c #A4B245",
"f@	c #A7B53F",
"g@	c #A7B540",
"h@	c #A6B442",
"i@	c #97A159",
"j@	c #8A8D80",
"k@	c #B2B2B5",
"l@	c #BDBDC1",
"m@	c #A2A3A3",
"n@	c #838679",
"o@	c #909955",
"p@	c #A4B241",
"q@	c #7C8357",
"r@	c #8B8B8E",
"s@	c #DDDDE0",
"t@	c #CACACB",
"u@	c #B2B2B2",
"v@	c #D5D5D7",
"w@	c #B9B9BD",
"x@	c #B7B7BA",
"y@	c #B7B7BB",
"z@	c #B8B8BB",
"A@	c #B3B3B6",
"B@	c #A4A4A8",
"C@	c #9D9DA0",
"D@	c #9B9B9F",
"E@	c #919483",
"F@	c #848C5B",
"G@	c #838B53",
"H@	c #838B55",
"I@	c #858D5B",
"J@	c #9B9F8B",
"K@	c #B6B6B7",
"L@	c #9E9EA1",
"M@	c #8C8F7D",
"N@	c #959F58",
"O@	c #A2AF41",
"P@	c #9DA856",
"Q@	c #90957C",
"R@	c #AAAAAD",
"S@	c #D6D6D9",
"T@	c #DEDEE1",
"U@	c #CECED2",
"V@	c #868688",
"W@	c #6B6A6C",
"X@	c #7B7B7E",
"Y@	c #DCDCDD",
"Z@	c #E3E3E6",
"`@	c #DCDCDF",
" #	c #D1D1D4",
".#	c #CACACD",
"+#	c #C8C8CB",
"@#	c #AFAFB2",
"##	c #8D8D90",
"$#	c #818283",
"%#	c #777778",
"&#	c #6C6C6D",
"*#	c #9C9C9F",
"=#	c #C7C7CB",
"-#	c #BFBFC2",
";#	c #A3A4A4",
">#	c #7F877B",
",#	c #8C9555",
"'#	c #939E4B",
")#	c #8B8F77",
"!#	c #B2B3B2",
"~#	c #D7D7D9",
"{#	c #C3C3C6",
"]#	c #B2B1B5",
"^#	c #726F72",
"/#	c #504D4F",
"(#	c #848386",
"_#	c #CFCFCF",
":#	c #F3F3F5",
"<#	c #F6F6F7",
"[#	c #F2F2F3",
"}#	c #DEDEE0",
"|#	c #B3B3B7",
"1#	c #9B9B9E",
"2#	c #79797B",
"3#	c #929295",
"4#	c #B5B5B9",
"5#	c #A1A1A4",
"6#	c #87897A",
"7#	c #96A059",
"8#	c #719B3D",
"9#	c #AAB83E",
"0#	c #88924F",
"a#	c #828383",
"b#	c #C0C0C3",
"c#	c #E8E8EB",
"d#	c #F9F9FA",
"e#	c #E8E9EA",
"f#	c #BCB8BB",
"g#	c #A69FA0",
"h#	c #6A5C5A",
"i#	c #635858",
"j#	c #9B9A9C",
"k#	c #D7D7D8",
"l#	c #FDFDFD",
"m#	c #E6E6E9",
"n#	c #D3D3D6",
"o#	c #98989B",
"p#	c #919194",
"q#	c #9A9A9A",
"r#	c #90947F",
"s#	c #A3B141",
"t#	c #899350",
"u#	c #81827F",
"v#	c #E2E1E4",
"w#	c #EFF0F1",
"x#	c #D4D4D6",
"y#	c #AAA2A2",
"z#	c #7F6B64",
"A#	c #71594E",
"B#	c #998F8E",
"C#	c #CCCBCE",
"D#	c #FCFCFD",
"E#	c #FEFEFF",
"F#	c #E6E6E8",
"G#	c #D0D0D4",
"H#	c #BABABE",
"I#	c #9D9DA1",
"J#	c #82847F",
"K#	c #90995F",
"L#	c #A4B144",
"M#	c #8A9354",
"N#	c #707170",
"O#	c #8E8D90",
"P#	c #BAB9BC",
"Q#	c #E2E2E4",
"R#	c #F0F0F2",
"S#	c #D7D3D3",
"T#	c #C6C0BD",
"U#	c #C6C0BE",
"V#	c #D6D3D2",
"W#	c #ECEBEC",
"X#	c #E7E7E9",
"Y#	c #9B9B9B",
"Z#	c #8F9477",
"`#	c #959F53",
" $	c #A5B341",
".$	c #929C52",
"+$	c #6F735C",
"@$	c #51514D",
"#$	c #878487",
"$$	c #C9C8CC",
"%$	c #E8E8EA",
"&$	c #FBFAFB",
"*$	c #FBFAFA",
"=$	c #FBFBFA",
"-$	c #CBCBCF",
";$	c #B4B4B8",
">$	c #8E8E91",
",$	c #7A7F62",
"'$	c #9CA947",
")$	c #929D4C",
"!$	c #6C704F",
"~$	c #7F7E81",
"{$	c #D5D5D9",
"]$	c #F9F9F9",
"^$	c #EBEBED",
"/$	c #CDCDD1",
"($	c #8F8F92",
"_$	c #767A64",
":$	c #8D9753",
"<$	c #898D79",
"[$	c #A0A1A2",
"}$	c #C6C6C9",
"|$	c #DFDFE1",
"1$	c #EAEAEC",
"2$	c #F6F6F6",
"3$	c #D9D9DC",
"4$	c #777B64",
"5$	c #9BA848",
"6$	c #98A25A",
"7$	c #838775",
"8$	c #7E7E80",
"9$	c #8F8F8F",
"0$	c #B2B2B3",
"a$	c #C8C8CA",
"b$	c #D0D0D3",
"c$	c #DDDDE1",
"d$	c #DBDBDE",
"e$	c #E9E9EC",
"f$	c #E5E5E6",
"g$	c #B6B6BA",
"h$	c #797D63",
"i$	c #8E9851",
"j$	c #848D52",
"k$	c #878F5E",
"l$	c #A3A3A7",
"m$	c #CECED1",
"n$	c #D1D1D3",
"o$	c #8F947C",
"p$	c #8F9956",
"q$	c #A3B142",
"r$	c #ACBA3C",
"s$	c #A4B146",
"t$	c #77796E",
"u$	c #75776F",
"v$	c #797A72",
"w$	c #7B7D75",
"x$	c #797977",
"y$	c #777779",
"z$	c #7A7A7C",
"A$	c #BBBBBE",
"B$	c #838386",
"C$	c #F4F4F5",
"D$	c #EEEEEF",
"E$	c #7D7F79",
"F$	c #919A57",
"G$	c #919C4D",
"H$	c #919B4E",
"I$	c #8F994C",
"J$	c #787F53",
"K$	c #6A6B69",
"L$	c #87878A",
"M$	c #949497",
"N$	c #919195",
"O$	c #909093",
"P$	c #7D7D80",
"Q$	c #6D6D6F",
"R$	c #89898B",
"S$	c #DADADC",
"T$	c #A8A8AA",
"U$	c #7C7C7F",
"V$	c #6D6F64",
"W$	c #919C4B",
"X$	c #A1AE48",
"Y$	c #8C9463",
"Z$	c #858584",
"`$	c #A5A5A8",
" %	c #A7A7AB",
".%	c #89898C",
"+%	c #DFDFE0",
"@%	c #FAFAFA",
"#%	c #B5B5B8",
"$%	c #7F7F81",
"%%	c #6B6B6E",
"&%	c #6C6D68",
"*%	c #747865",
"=%	c #707364",
"-%	c #686868",
";%	c #6F6F71",
">%	c #CCCCCF",
",%	c #88888B",
"'%	c #6B6B6D",
")%	c #797B75",
"!%	c #929B61",
"~%	c #9FAC45",
"{%	c #89915E",
"]%	c #939589",
"^%	c #A6A6A8",
"/%	c #B2B2B6",
"(%	c #C4C4C6",
"_%	c #D2D2D4",
":%	c #A1A1A5",
"<%	c #7A7A7D",
"[%	c #757A5E",
"}%	c #889153",
"|%	c #71726B",
"1%	c #B4B4B6",
"2%	c #E2E2E3",
"3%	c #B0B0B4",
"4%	c #7E7E81",
"5%	c #808083",
"6%	c #9C9D9F",
"7%	c #929486",
"8%	c #89925A",
"9%	c #75776A",
"0%	c #93968B",
"a%	c #898E71",
"b%	c #A7A9A0",
"c%	c #CDCDD0",
"d%	c #C9C9CB",
"e%	c #939395",
"f%	c #7D835D",
"g%	c #949F49",
"h%	c #7A7C71",
"i%	c #AAAAAC",
"j%	c #CFCFD2",
"k%	c #8C8C8F",
"l%	c #9C9CA0",
"m%	c #97A34A",
"n%	c #787B69",
"o%	c #888987",
"p%	c #8D9563",
"q%	c #9EAA51",
"r%	c #8E9569",
"s%	c #A5A5A5",
"t%	c #E7E7E7",
"u%	c #E8E8E9",
"v%	c #A7A7A8",
"w%	c #939E47",
"x%	c #808278",
"y%	c #C6C6C7",
"z%	c #BABABD",
"A%	c #868689",
"B%	c #B1B1B5",
"C%	c #797E63",
"D%	c #909959",
"E%	c #919581",
"F%	c #94968E",
"G%	c #8D9465",
"H%	c #9BA845",
"I%	c #838C4C",
"J%	c #939394",
"K%	c #E4E4E4",
"L%	c #E6E6E7",
"M%	c #A5A5A7",
"N%	c #7C825D",
"O%	c #919D46",
"P%	c #81837B",
"Q%	c #D0D0D0",
"R%	c #CCCCCE",
"S%	c #757577",
"T%	c #737375",
"U%	c #979899",
"V%	c #90947D",
"W%	c #919B55",
"X%	c #A7B542",
"Y%	c #919B5A",
"Z%	c #787B6B",
"`%	c #6E736D",
" &	c #868D63",
".&	c #A1AE4A",
"+&	c #A8B63F",
"@&	c #89924E",
"#&	c #969890",
"$&	c #DCDDDC",
"%&	c #CDCDCF",
"&&	c #999A98",
"*&	c #828A5A",
"=&	c #95A145",
"-&	c #868976",
";&	c #C9C9C8",
">&	c #D7D7DA",
",&	c #AFB0AF",
"'&	c #7C7E75",
")&	c #6E7063",
"!&	c #707366",
"~&	c #74776A",
"{&	c #75776D",
"]&	c #6F7869",
"^&	c #959F57",
"/&	c #A1AE43",
"(&	c #95A04B",
"_&	c #939E4D",
":&	c #9BA847",
"<&	c #9FAC43",
"[&	c #9DA56F",
"}&	c #AFB1A6",
"|&	c #B8B8B8",
"1&	c #ACACAE",
"2&	c #9FA09D",
"3&	c #979E74",
"4&	c #9CA84A",
"5&	c #A8B73E",
"6&	c #A4B13E",
"7&	c #9AA55C",
"8&	c #A9AD98",
"9&	c #B7B7B7",
"0&	c #B7B7B8",
"a&	c #999E82",
"b&	c #949F54",
"c&	c #949F4C",
"d&	c #95A04E",
"e&	c #949F4D",
"f&	c #939E4C",
"g&	c #95A14B",
"h&	c #A3B042",
"i&	c #8A925D",
"j&	c #7B7F66",
"k&	c #7C8065",
"l&	c #7A7E65",
"m&	c #828960",
"n&	c #9DA94C",
"o&	c #A9B740",
"p&	c #939D56",
"q&	c #7D8265",
"r&	c #7D8262",
"s&	c #AAB93B",
"t&	c #A1AE41",
"u&	c #9CA943",
"v&	c #9CA944",
"w&	c #9CA945",
"x&	c #9FAC44",
"y&	c #729F39",
"z&	c #A4B23F",
"A&	c #9DA943",
"B&	c #A5B340",
"                                                                                                                                ",
"    .                               .                                                                                           ",
"      .                               .                     .                               .                       .           ",
"                                                              .                               .                       .         ",
"                                                                                                                                ",
"                .                               .                                                                               ",
"              .                               .                         .                               .                       ",
"                                                                      .                               .                       . ",
"                                                                                                                                ",
"                                                                                                                                ",
"                                                                                                                                ",
"                                          + +                                                                                   ",
"                                        @ # $ %                                                                                 ",
"                                    & * = - ; > %                                               , ' ) ! +                       ",
"                                    ~ { ] ^ / ( _                                             : < [ } | 1                       ",
"                                2 3 4 5 6 7 8 9 0 a ,                                       b c d e f g h i &                   ",
"                                , j k l m n o p q r s                                     2 t u v w x y z A *                   ",
"                  .           B C D E F G H I J K L M                                     + N O P Q R S T U V W                 ",
"                .       + + , X Y Z `  ...+.@.#.$.%.&.&                   .               + *.=.-.;.>.,.'.).!.~.2               ",
"                      : {.].^./.(._.:.<.[.}.|.1.2.3.4.5.6.              .                 2 7.8.9.0.a.b.c.d.e.f.                ",
"                    g.h.i.j.k.l.m.n.o.p.q.r.s.t.u.v.w.x.y.                                  + z.A.B.C.D.E.F.G.H.                ",
"      .             I.J.K.L.M.N.O.P.Q.R.S.T.U.V.W.X.Y.Z.`.                                    %  +.+++@+#+$+%+&+                ",
"        .       *+=+-+;+>+,+'+)+!+~+{+]+^+/+(+_+:+<+@+[+}+B 2 .                                   |+1+2+3+4+5+6+      .         ",
"                7.7+8+9+0+a+b+c+c+d+]+]+e+f+_+g+d+E.h+i+j+k+,   .                                 l+m+2+X.n+o+6+        .       ",
"                p+q+r+s+t+u+_+]+]+]+]+]+]+]+]+]+]+R v+w+x+y+,                                 % z+A+B+C+D+w+E+F+                ",
"              + G+H+I+v+J+d+K+]+]+]+]+]+]+]+]+]+]+L+M+N+O+P+Q+: R+R+R+R+R+R+R+R+, +           S+T+U+V+n.W+X+Y+Z+2               ",
"            ' `+ @.@+@@@#@]+]+]+]+]+]+]+]+]+]+]+]+L+$@%@&@*@=@-@;@;@;@;@;@;@>@,@'@)@%       !@~@{@]@^@/@(@_@:@<@                ",
"            [@}@|@n+1@2@^+3@3@2@4@5@]+]+]+]+]+]+]+L+,.'+6@&@7@8@9@9@9@9@9@0@a@b@c@d@e@f@g@h@i@j@k@3+l@m@n@o@S+&                 ",
"            p@q@r@0+s@!+t@u@u@h+v@Q K+]+]+]+]+]+]+L+,.a+'+X.w@x@y@y@y@y@z@A@B@C@D@E@F@G@H@I@J@K@s+l@L@M@N@O@&                   ",
"    .   + f@P@Q@R@S@T@U@C+V@W@X@9+Y@5@]+]+]+]+]+]+L+Z@`@P.!+!+!+!+!+!+!+!+T@ #.#+#@###$#%#&#*#=#-#;#>#,#y.                      ",
"      . ! '#)#!#~#b+M+,+{#]#^#/#(#_#d+]+]+]+]+]+]+L+$@Z@:#L+4@4@4@4@4@4@4@<#Q.[#:+}#D+|#1#2#3#4#5#6#7#8#:                       ",
"        9#0#a#b#c#d#e#;.f#g#h#i#j#k#5@]+]+]+]+]+]+d+J+:+l#]+]+]+]+]+]+]+]+]+]+]+]+<#m#n#N+o#p#q#r#P+s#                          ",
"        9#t#u#w@v#<#w#x#y#z#A#B#C#u+l#]+]+]+]+]+]+K+5@D#E#]+]+]+]+]+]+]+]+]+]+]+]+K+c+F#G#H#I#J#K#L#*                           ",
"        9#M#N#O#P#Q#R#@@S#T#U#V#W#L+K+]+]+]+]+]+]+]+]+]+]+]+]+]+]+]+]+]+]+]+]+]+]+]+K+R X#6@y@Y#Z#`# $          .               ",
"        ! .$+$@$#$$$%$^+&$*$=$5@l#E#]+]+K+#@5@]+]+]+]+]+]+]+]+]+]+]+l#d+l#]+]+]+]+]+]+]+R )+-$;$>$,$'$        .                 ",
"        + L#)$!$~$y@{$c#L+]+]+]+]+]+]+]+]$u+~+l#]+]+]+]+]+]+]+]+]+]+R ^$R E#]+]+]+]+]+]+c+!+/$y@($_$C                           ",
"            g@:$<$[$A@}$|$b+:+[#<#c+c+c+b+)+1$l#]+]+]+]+]+d+^+<#<#2$X#3$u+K+]+]+]+]+]+]+c+!+/$y@($4$5$                          ",
"            + h@6$7$8$9$0$}$a$b$s@)+)+)+c$d$e$5@]+]+]+]+l#:+!+)+P.)+<+;.f$l#]+]+]+]+]+]+c+P.O.g$($h$&.                          ",
"                l+i$j$k$K.X+0.l$4+;$;$|#H#3+}#:+_+]+]+^+X#>.m$O./$O.N+a.n$Q.l#]+]+]+]+]+R 1@W+[$o$p$q$                          ",
"                r$) ' s$i.t$u$v$w$x$y$z$($@#=#`@[#]+]+Q %@A$y@g$y@4#*#B$k@s@C$K+]+]+]+K+D$;.C@E$F$S++                           ",
"                      g.{.G$H$].I$J$K$L$M$p#9+X.^$]+]+b+U@C+N$>$O$>$P$Q$R$4+S$[#D#]+{+C$S$T$U$V$W$                              ",
"                        + r$, ' X$Y$Z$`$ %.%O$A@+%@%K+<#)+#%$%%%&%*%=%-%;%M$>%u+d+K+<#,.s+,%'%)%!%e@*                           ",
"                              ~%{%]%^%/%|# %M$3#(%1$d#l#Q._%:%<%[%H$}%|%.%1%2%]$l#C$Z@b$3%4%5%6%7%8% +                          ",
"                              k+9%2+g$w@|# %0%a%b%c%~+]+l#@@d%e%f% +g%h%i%#+C$]+K+^$j%;$C@k%l%]@p#_$C                           ",
"                              m%n%r+|#y@ %o%p%q%r%s%t%]+]+#@u%v%f%7.w%x%y%2@{+]+5@Q#z%3#A%:%B%3%O$C%&.                          ",
"                  .           <@D%E%o#X+F%G%H%`.I%J%K%]+]+#@L%M%N%7.O%P%Q%]+]+l#R#R%X+S%T%O$1#U%V%W%l+            .             ",
"                .             % X%Y%Z%`% &.&% +&@&#&$&^+C$X#%&&&*&<@=&-&;&c.^+Q >&,&'&)&!&~&{&]&^&Q++           .               ",
"                                % /&(&_&:&6.  , <&[&}&|&K@1&2&3&4&5&6&7&8&9&0&&@-.a&b&c&d&e&f&g&h&                              ",
"                                  2 + + +         s$i&j&k&l&m&n&+     o&p&q&j&l&r&`#9#  + + + + 2                               ",
"      .                                         . s&t&u&v&w&x&y&      % z&A&u&v&I.B&                  .                         ",
"        .                                     .                 .                                       .                       ",
"                                                                                                                                ",
"                                                                                                                                ",
"                                                      .                                                                         ",
"                                                                                                                                ",
"                                                                                                                                ",
"  .                               .                                                                               .             ",
"    .                               .                     .                               .                         .           ",
"                                                            .                               .                                   ",
"                                                                                                                                ",
"              .                               .                                                                               . ",
"            .                               .                         .                               .                     .   ",
"                                                                    .                               .                           ",
"                                                                                                                                "};
