/* XPM */
static char * cat_top55H_xpm[] = {
"64 64 518 2",
"  	c #ADBC3A",
". 	c #74A334",
"+ 	c #ACBB3B",
"@ 	c #ADBC3B",
"# 	c #AAB93C",
"$ 	c #9AA646",
"% 	c #99A546",
"& 	c #A9B73D",
"* 	c #A7B53E",
"= 	c #97A348",
"- 	c #9DA945",
"; 	c #ACBA3B",
"> 	c #ABBA3B",
", 	c #A2AF4B",
"' 	c #8C9269",
") 	c #8A906B",
"! 	c #A1AD4E",
"~ 	c #ABB93C",
"{ 	c #AAB83D",
"] 	c #9EA953",
"^ 	c #878C6E",
"/ 	c #8F9766",
"( 	c #A5B247",
"_ 	c #9AA645",
": 	c #8F966B",
"< 	c #A8A9A3",
"[ 	c #A9ABA6",
"} 	c #909670",
"| 	c #97A345",
"1 	c #A9B83D",
"2 	c #939F49",
"3 	c #93987A",
"4 	c #ACADAA",
"5 	c #A3A69C",
"6 	c #8E9662",
"7 	c #9DAA42",
"8 	c #A1AE49",
"9 	c #8C9463",
"0 	c #929390",
"a 	c #C8C8CB",
"b 	c #CDCDD0",
"c 	c #9E9F9F",
"d 	c #929870",
"e 	c #9FAB4E",
"f 	c #A1AE43",
"g 	c #A0AD44",
"h 	c #9EAA53",
"i 	c #909676",
"j 	c #A6A6A8",
"k 	c #D2D2D5",
"l 	c #C1C1C4",
"m 	c #8C8E88",
"n 	c #90995E",
"o 	c #A3B046",
"p 	c #9DA946",
"q 	c #858C61",
"r 	c #90928B",
"s 	c #B4B4B7",
"t 	c #E2E2E4",
"u 	c #EBEBED",
"v 	c #CECED1",
"w 	c #A8AAA5",
"x 	c #83876B",
"y 	c #7A805B",
"z 	c #7B815F",
"A 	c #797F5A",
"B 	c #878C73",
"C 	c #AFB0AD",
"D 	c #D4D4D6",
"E 	c #EDEDEF",
"F 	c #DCDCDE",
"G 	c #AEAEB0",
"H 	c #8C8F84",
"I 	c #878E5C",
"J 	c #A1AE44",
"K 	c #96A248",
"L 	c #75776A",
"M 	c #9C9C9F",
"N 	c #CCCCCF",
"O 	c #F0F0F1",
"P 	c #FBFBFB",
"Q 	c #BCBCBE",
"R 	c #77777A",
"S 	c #828285",
"T 	c #99999C",
"U 	c #9A9A9D",
"V 	c #97979B",
"W 	c #7C7C7F",
"X 	c #7F7F81",
"Y 	c #C6C6C9",
"Z 	c #EFEFF1",
"` 	c #949497",
" .	c #767B62",
"..	c #AAB93D",
"+.	c #95A04E",
"@.	c #7D7F72",
"#.	c #AAAAAE",
"$.	c #D9D9DC",
"%.	c #F4F4F5",
"&.	c #FFFFFF",
"*.	c #FAFAFA",
"=.	c #CECECE",
"-.	c #909091",
";.	c #B0B0B3",
">.	c #D1D1D4",
",.	c #D2D2D6",
"'.	c #D3D3D6",
").	c #CECED2",
"!.	c #A8A8AB",
"~.	c #959596",
"{.	c #D8D8D9",
"].	c #FCFCFD",
"^.	c #FEFEFE",
"/.	c #F0F0F2",
"(.	c #D4D4D7",
"_.	c #A1A1A5",
":.	c #7D816B",
"<.	c #9BA74B",
"[.	c #ABBA3C",
"}.	c #A7B540",
"|.	c #96A150",
"1.	c #8E9471",
"2.	c #9A9B98",
"3.	c #BCBCBF",
"4.	c #DDDDE0",
"5.	c #E9E9EA",
"6.	c #D1D1D2",
"7.	c #DFDFE1",
"8.	c #EFEFF0",
"9.	c #DCDCDD",
"0.	c #D3D3D3",
"a.	c #EEEEEE",
"b.	c #F1F1F3",
"c.	c #D8D8DC",
"d.	c #B6B6B9",
"e.	c #969892",
"f.	c #8E956B",
"g.	c #98A44C",
"h.	c #A9B73E",
"i.	c #697A5C",
"j.	c #888889",
"k.	c #B0B0B4",
"l.	c #CCCCD0",
"m.	c #E2E2E5",
"n.	c #F6F6F7",
"o.	c #FDFDFD",
"p.	c #FCFCFC",
"q.	c #FDFDFE",
"r.	c #F3F3F4",
"s.	c #DFDFE2",
"t.	c #C8C8CC",
"u.	c #ABABAE",
"v.	c #828282",
"w.	c #838A58",
"x.	c #A5B342",
"y.	c #A0AD45",
"z.	c #7B805F",
"A.	c #87878A",
"B.	c #B4B4B8",
"C.	c #DADADC",
"D.	c #FBFBFC",
"E.	c #F1F1F2",
"F.	c #D5D5D7",
"G.	c #ADADB1",
"H.	c #808083",
"I.	c #808759",
"J.	c #A5B242",
"K.	c #A0AE45",
"L.	c #8C8C8F",
"M.	c #BDBDC1",
"N.	c #E5E5E7",
"O.	c #B6B6BA",
"P.	c #848487",
"Q.	c #808859",
"R.	c #969699",
"S.	c #EDEDEE",
"T.	c #E9E9EB",
"U.	c #8D8D90",
"V.	c #808758",
"W.	c #909093",
"X.	c #98989B",
"Y.	c #CFCFD3",
"Z.	c #ECECEE",
"`.	c #8F8F91",
" +	c #A0AE44",
".+	c #8F8F92",
"++	c #C0C0C3",
"@+	c #DADADD",
"#+	c #F9F9FA",
"$+	c #F8F8F8",
"%+	c #EAEAEC",
"&+	c #D7D7DA",
"*+	c #BABABD",
"=+	c #A1AE45",
"-+	c #88888B",
";+	c #B2B2B6",
">+	c #C7C7CB",
",+	c #EEEEEF",
"'+	c #F8F8F9",
")+	c #F9F9F9",
"!+	c #D5D5D9",
"~+	c #C5C5C9",
"{+	c #ADADB0",
"]+	c #818184",
"^+	c #BCBCC0",
"/+	c #E4E4E6",
"(+	c #E3E3E6",
"_+	c #E6E6E9",
":+	c #F2F2F3",
"<+	c #E5E5E8",
"[+	c #E4E4E7",
"}+	c #D6D6D9",
"|+	c #C3C3C7",
"1+	c #BBBBBF",
"2+	c #ABABAF",
"3+	c #7A805F",
"4+	c #89898C",
"5+	c #AFAFB3",
"6+	c #ACACB0",
"7+	c #BFBFC3",
"8+	c #D1D1D5",
"9+	c #E0E0E3",
"0+	c #E9E9EC",
"a+	c #F7F7F8",
"b+	c #E6E6E8",
"c+	c #D6D6DA",
"d+	c #A6A6AA",
"e+	c #AEAEB2",
"f+	c #7F8659",
"g+	c #7E845D",
"h+	c #8A8A8B",
"i+	c #C4C4C8",
"j+	c #F4F4F4",
"k+	c #D4D4D8",
"l+	c #A4A4A7",
"m+	c #868689",
"n+	c #9E9EA1",
"o+	c #A8A8AC",
"p+	c #848483",
"q+	c #838B58",
"r+	c #A7B53F",
"s+	c #97A24F",
"t+	c #919772",
"u+	c #949592",
"v+	c #939396",
"w+	c #C1C1C5",
"x+	c #B4B4B6",
"y+	c #C2C2C2",
"z+	c #C2C2C3",
"A+	c #D1D1D1",
"B+	c #F3F3F3",
"C+	c #98989C",
"D+	c #94968F",
"E+	c #90976C",
"F+	c #99A54B",
"G+	c #73A137",
"H+	c #96A14F",
"I+	c #7A7D6E",
"J+	c #BABABE",
"K+	c #BEBEC1",
"L+	c #9C9C9E",
"M+	c #8E8E8F",
"N+	c #919192",
"O+	c #8F8F90",
"P+	c #AAAAAB",
"Q+	c #DEDEDE",
"R+	c #F7F7F7",
"S+	c #F5F5F6",
"T+	c #B8B8BB",
"U+	c #919194",
"V+	c #7B7F68",
"W+	c #6B8F44",
"X+	c #777A6A",
"Y+	c #A7A7AA",
"Z+	c #C6C6CA",
"`+	c #ADADAF",
" @	c #CFCFD0",
".@	c #DBDBDB",
"+@	c #DADADA",
"@@	c #D2D2D2",
"#@	c #B9B9BA",
"$@	c #CDCDCD",
"%@	c #F6F6F6",
"&@	c #CACACE",
"*@	c #787D62",
"=@	c #9CA945",
"-@	c #96A249",
";@	c #9F9FA2",
">@	c #ACACAE",
",@	c #BDBDBE",
"'@	c #F0F0F0",
")@	c #E4E4E5",
"!@	c #E3E3E4",
"~@	c #D7D7D8",
"{@	c #B4B4B5",
"]@	c #C6C6C7",
"^@	c #F5F5F5",
"/@	c #CBCBCF",
"(@	c #797D64",
"_@	c #9CA946",
":@	c #98A34C",
"<@	c #727565",
"[@	c #737376",
"}@	c #99999B",
"|@	c #E9E9E9",
"1@	c #E1E1E4",
"2@	c #C6C6C8",
"3@	c #A0A0A1",
"4@	c #ADADAD",
"5@	c #D9D9D9",
"6@	c #F2F2F2",
"7@	c #B9B9BD",
"8@	c #787D63",
"9@	c #9DA947",
"0@	c #98A44D",
"a@	c #707362",
"b@	c #5B5B5D",
"c@	c #DFDFDF",
"d@	c #B3B3B5",
"e@	c #B6B6B7",
"f@	c #C8C8C8",
"g@	c #F1F1F1",
"h@	c #BFBFC4",
"i@	c #8E8E91",
"j@	c #5D5D5F",
"k@	c #89898A",
"l@	c #DBDBDC",
"m@	c #E1E1E1",
"n@	c #9E9EA0",
"o@	c #B8B8B9",
"p@	c #EFEFEF",
"q@	c #B2B2B5",
"r@	c #8B8B8E",
"s@	c #787C62",
"t@	c #5E5E61",
"u@	c #848485",
"v@	c #CDCDCF",
"w@	c #CFCFD1",
"x@	c #8C8C8D",
"y@	c #BABABA",
"z@	c #97979A",
"A@	c #747477",
"B@	c #767B61",
"C@	c #9DAA48",
"D@	c #5F5F61",
"E@	c #C2C2C6",
"F@	c #9B9B9D",
"G@	c #E8E8E8",
"H@	c #D5D5D6",
"I@	c #8C8C8E",
"J@	c #69696C",
"K@	c #9DAA49",
"L@	c #616163",
"M@	c #777779",
"N@	c #AAAAAD",
"O@	c #C2C2C5",
"P@	c #B3B3B6",
"Q@	c #B0B0B1",
"R@	c #E1E1E2",
"S@	c #ACACAF",
"T@	c #9DA948",
"U@	c #97A34C",
"V@	c #737666",
"W@	c #818183",
"X@	c #9C9CA0",
"Y@	c #A3A3A6",
"Z@	c #C1C1C2",
"`@	c #E0E0E0",
" #	c #FEFEFF",
".#	c #EAEAEB",
"+#	c #787B6C",
"@#	c #A6A6A9",
"##	c #9F9FA1",
"$#	c #929294",
"%#	c #B1B1B5",
"&#	c #A3A3A5",
"*#	c #CBCBCE",
"=#	c #E8E8EA",
"-#	c #797C6E",
";#	c #AFAFB2",
">#	c #D5D5D8",
",#	c #B7B7B8",
"'#	c #9D9DA0",
")#	c #AEAEB1",
"!#	c #B9B9BC",
"~#	c #BDBDBF",
"{#	c #F2F2F4",
"]#	c #D7D7DB",
"^#	c #A2A2A5",
"/#	c #7A7E65",
"(#	c #797C6D",
"_#	c #A9A9AC",
":#	c #DEDEDF",
"<#	c #A5A5A6",
"[#	c #C7C7CA",
"}#	c #A2A2A4",
"|#	c #A0A0A3",
"1#	c #C3C3C6",
"2#	c #E6E6E7",
"3#	c #E0E0E2",
"4#	c #DADADB",
"5#	c #959598",
"6#	c #D4D4D5",
"7#	c #DDDDDE",
"8#	c #E7E7E8",
"9#	c #97A24A",
"0#	c #75786A",
"a#	c #DEDEE0",
"b#	c #EEEEF0",
"c#	c #D2D2D3",
"d#	c #DFDFE3",
"e#	c #DADADE",
"f#	c #D3D3D7",
"g#	c #97A34A",
"h#	c #777A69",
"i#	c #B5B5B9",
"j#	c #C9C9CD",
"k#	c #DCDCDF",
"l#	c #DEDEE1",
"m#	c #8D965B",
"n#	c #929584",
"o#	c #A0A0A2",
"p#	c #CDCDD1",
"q#	c #CCCCD1",
"r#	c #DBDBDF",
"s#	c #74A235",
"t#	c #A6B443",
"u#	c #8C955B",
"v#	c #80817E",
"w#	c #A3A3A7",
"x#	c #8A8A8D",
"y#	c #B7B7BB",
"z#	c #B7B7BA",
"A#	c #DCDCE0",
"B#	c #A1A1A4",
"C#	c #8B944E",
"D#	c #767675",
"E#	c #B8B8BC",
"F#	c #929295",
"G#	c #8F8F93",
"H#	c #777B65",
"I#	c #9CA847",
"J#	c #929D4D",
"K#	c #81856F",
"L#	c #9C9C9C",
"M#	c #6D6E6B",
"N#	c #737665",
"O#	c #6B6C6A",
"P#	c #6E6E70",
"Q#	c #C4C4C7",
"R#	c #E8E8EB",
"S#	c #8C8E89",
"T#	c #838A5E",
"U#	c #A5B341",
"V#	c #9AA555",
"W#	c #8B8F76",
"X#	c #737662",
"Y#	c #8F994E",
"Z#	c #69854F",
"`#	c #707366",
" $	c #858588",
".$	c #969793",
"+$	c #8E9663",
"@$	c #9FAC49",
"#$	c #A8B63F",
"$$	c #6B894E",
"%$	c #8A8E76",
"&$	c #9D9E9C",
"*$	c #A4A4A8",
"=$	c #8F9282",
"-$	c #8C9558",
";$	c #A3B142",
">$	c #99A548",
",$	c #6D7568",
"'$	c #CACACD",
")$	c #C8C8C9",
"!$	c #7F817A",
"~$	c #909B48",
"{$	c #828670",
"]$	c #7D8074",
"^$	c #949E5D",
"/$	c #797C6B",
"($	c #A5A5A9",
"_$	c #E3E3E5",
":$	c #7E8174",
"<$	c #929D49",
"[$	c #A5B340",
"}$	c #929C4E",
"|$	c #899252",
"1$	c #8E9850",
"2$	c #77796B",
"3$	c #DBDBDD",
"4$	c #B9B9BB",
"5$	c #9FA294",
"6$	c #929B61",
"7$	c #9FAC43",
"8$	c #AAB83E",
"9$	c #73A038",
"0$	c #9BA748",
"a$	c #7E8364",
"b$	c #989A93",
"c$	c #B6B8B2",
"d$	c #BCBEB8",
"e$	c #ADAFAA",
"f$	c #8B8D82",
"g$	c #8F975D",
"h$	c #A6B444",
"i$	c #ACBB3A",
"j$	c #A6B440",
"k$	c #9BA74F",
"l$	c #A4AE69",
"m$	c #AFB87C",
"n$	c #B0B97E",
"o$	c #A9B272",
"p$	c #9BA656",
"q$	c #9FAC41",
"r$	c #ADBC3C",
"s$	c #ADBC3D",
"                                                                                                                                ",
"    .                               .                                                                                           ",
"      .                               .                     .                               .                       .           ",
"                                                              .                               .                       .         ",
"                                                                                                                                ",
"                .                               .                                                                               ",
"              .                               .                         .                               .                       ",
"                                                                      .                               .                       . ",
"                                              + +                       @ + +                                                   ",
"                                            # $ % &                     * = - ;                                                 ",
"                                          > , ' ) ! ~               + { ] ^ / ( ;                                               ",
"                                        + _ : < [ } | >             1 2 3 4 5 6 7                                               ",
"                                      1 8 9 0 a b c d e f g g g g f h i j k l m n o #                                           ",
"                                      p q r s t u v w x y z z z z A B C D E F G H I J                                           ",
"                                      K L M N O P u Q R S T U U V W X Y Z P u Y `  .-                                           ",
"                                    ..+.@.#.$.%.&.*.=.-.;.>.,.'.).!.~.{.].^./.(._.:.<.[.                                        ",
"                                  }.|.1.2.3.4.%.&.&.5.6.7.8.Z O E 9.0.a.&.&.b.c.d.e.f.g.h.                                      ",
"                  .               J i.j.k.l.m.n.&.&.o.p.].^.^.^.q.p.p.^.&.&.r.s.t.u.v.w.x.                                      ",
"                .                 y.z.A.B.C.r.p.&.&.&.&.&.&.&.&.&.&.&.&.&.&.D.E.F.G.H.I.J.  .                                   ",
"                                  K.z L.M.N.o.&.&.&.&.&.&.&.&.&.&.&.&.&.&.&.&.P 7.O.P.Q.x.    .                                 ",
"                                  g z R.b S.^.&.&.&.&.&.&.&.&.&.&.&.&.&.&.&.&.p.T.Y U.V.x.                                      ",
"      .                           g z U './.^.&.&.&.&.&.&.&.&.&.&.&.&.&.&.&.&.o.E N W.V.x.                                      ",
"        .                         g z X.Y.Z.P &.&.&.&.&.&.&.&.&.&.&.&.&.&.&.^.*.T.t.`.V.x.              .             .         ",
"                                   +z .+++@+Z.#+&.&.&.&.&.&.&.&.&.&.&.&.&.&.$+%+&+*+A.V.x.            .                 .       ",
"                                  =+z -+;+>+$.,+'+'+'+)+p.&.&.&.&.p.'+'+)+$+u !+~+{+]+Q.x.                                      ",
"                                  =+z -+k.^+~+$./+/+(+_+%.&.&.&.^.:+<+(+[+(+}+|+1+2+]+Q.x.                                      ",
"                                  y.3+4+5+6+!.7+8+c.9+0+a+&.&.&.^.r.b+4.c+Y.1+d+e+2+S f+J.                                      ",
"                                  J g+h+u.T -+#.i+,./+j+)+P ^.&.&.o.a+_+k+|+l+m+n+o+p+q+x.                                      ",
"                                  r+s+t+u+v+M 1+w+;.x+y+z+A+B+&.&.&.q.%.N.Y.s C+v+D+E+F+h.                                      ",
"    .                               G+H+I+C+J+t.K+L+M+N+O+P+Q+R+o.&.&.^.S+s.l.T+U+V+<.;     .       .                           ",
"      .                               W+X+Y+Z+G.`+ @.@+@.@@@#@$@%@&.&.&.a+m.c+&@M *@=@        .       .                         ",
"                                      -@X+;@3.>@,@5.'@)@!@~@{@]@^@&.^.#+S.c.8+/@n+(@_@                                          ",
"                                      :@<@[@}@6.|@1@2@3@~.4@5@6@].&.D.E @+Z+7+7@v+8@9@                                          ",
"                .                     0@a@b@j.c@'@2@d@e@{@f@g@&.&.&.].E.9+N h@B.i@8@9@                          .               ",
"              .                       0@a@j@k@l@m@n@o@p@$+$+o.&.&.&.&.q.%.9+/@q@r@s@9@                        .                 ",
"                                      0@a@t@u@v@w@x@y@*.&.&.&.&.&.&.&.&.o.:+w@z@A@B@C@                                          ",
"                                      0@a@D@W J+E@F@o@G@)+&.&.&.&.&.&.&.&.o.H@I@J@B@K@                                          ",
"                                      0@a@L@M@N@O@w+P@Q@c@^.&.&.&.&.&.&.&.^.R@S@]+s@T@                                          ",
"                                      U@V@W@R.X@5+a J+Y@Z@`@8.#+ #&.&.&.&.^..#i+` 8@_@                                          ",
"                                      -@+#@#w+##$#%#i+Z+N@&#*#=#)+^.&.&.&.^./.'.;@(@_@                                          ",
"                                      K -#;#>#v@,#'#)#Y !#!.o+~#C.O ^.&.&.&.{#]#^#/#_@                                          ",
"                                      K (#_#]#,+:#<#}@;+[#~+}#|#1#2#o.&.^.D.Z c+^#/#_@                                          ",
"                                      -@X+'#>+3#b+4##@5#G.a 6#7#8#%.^.&.*.Z.(+k+^#/#_@                                          ",
"                                      9#0#5#7@&@a#b#c####.N %+a+R+R+a+a+O d#e#f#Y@/#_@                                          ",
"                                      g#h#5#i#^+j#k#&+j#l.!+l#m.m.m.1@1@s.e#e#f#Y@/#_@                                          ",
"                  .                 . g m#n#o#5+M.t.|+1+~+p#p#p#p#p#q#l.Y.c+r#f#Y@/#_@      .                     .             ",
"                .                     s#t#u#v#l+7@7@w#x#_.O.y#z#z#O.y#1+Z+c+A#8+B#/#_@        .                 .               ",
"                                        ~ C#D#^#E#O.N@T F#W..+.+G#U.V y#(.=#t Z+z@H#I#                                          ",
"                                        ..J#K#L#5+i#E#k.i@M#N#V@O#P#L.Q#R#$+!@d@S#T#y.                                          ",
"      .                                 + U#V#W#` 5+J+;+U.X#Y#Z#`# $;#a#)+].~@.$+$@$h.                .                         ",
"        .                                   #$$$%$&$*$o#=$-$;$>$,$U '$8.^.n.)$!$~$+                     .                       ",
"                                            + #$V#{$M@]$^$t#[.= /$($}+b.n._$z#:$<$+                                             ",
"                                                [$}$|$1$J     = 2$|#&@3$F.4$5$6$7$+                                             ",
"                                                + ..8$9$+     0$a$b$c$d$e$f$g$h$i$                                              ",
"                                                              j$k$l$m$n$o$p$q$+                                                 ",
"                                                                @ @ r$s$r$@                                                     ",
"  .                               .                                                                               .             ",
"    .                               .                     .                               .                         .           ",
"                                                            .                               .                                   ",
"                                                                                                                                ",
"              .                               .                                                                               . ",
"            .                               .                         .                               .                     .   ",
"                                                                    .                               .                           ",
"                                                                                                                                "};
