/* XPM */
static char * cat_left_xpm[] = {
"64 64 10 1",
" 	c #ADBC3A",
".	c #74A334",
"+	c #646466",
"@	c #FFFFFF",
"#	c #EB954E",
"$	c #D9D9DD",
"%	c #FFAE68",
"&	c #B7B7BB",
"*	c #2E1E22",
"=	c #5C3000",
"                                                                ",
"  .               .                                             ",
"   .               .          .               .           .     ",
"                               .               .           .    ",
"                                                                ",
"        .               .                                       ",
"       .               .            .               .           ",
"                                   .               .           .",
"                                                                ",
"                                                                ",
"                                                                ",
"                                                                ",
"                                                                ",
"                                                                ",
"                                                                ",
"                                                                ",
"                                                                ",
"         .        .                                             ",
"        .          .                 .        .                 ",
"                                    .          .                ",
"                                                                ",
"   .                    .                                       ",
"    .                  .   +   .                    .      .    ",
"                          +@+   .          ++      .        .   ",
"                         +@#$+            +@@+                  ",
"                        ++#%@+            +&$@+                 ",
"                      ++&$@%@$+            ++@+                 ",
"                     +&$$@@$@$+             +$+                 ",
"                    +&$@@@@@@@&+            +$+                 ",
"  .               . +$@@@@@@@@$+           +$&+   .             ",
"   .               +&@@@@@@@@@$$+++++++   +$&+ .   .            ",
"                   +$$++&@@@@@$$$$$$$&&+++$&+                   ",
"                  +$@&$*+@@@@@$@@@@@@@@$&+&+                    ",
"        .         +$@$==$@@@@@@@@@@@@@@@$&+             .       ",
"       .          +*$@@@@@@@@@@@@@@@@@@@@$&+           .        ",
"                   +&$@@@@@$@@@@@@@$@@@@@$&+                    ",
"                    ++&&$$$$@@@@$$$&@@@@@$&+                    ",
"                      +++++&$@@&&&&+$@@@@&+                     ",
"                         +&+&@@$+++++$@@$++                     ",
"                        +&&&+$@@&+ +&@@$&+&+                    ",
"                        +&&+ +@@@+ +@@@&+&&+                    ",
"                         ++  +@@$+ +@@$++++                     ",
"                              +++   +++                         ",
"                                                                ",
"                                                                ",
"         .        .                  .        .          .      ",
"        .          .                .          .        .       ",
"                                                                ",
"                                                                ",
"   .                    .      .                   .            ",
"    .                  .        .                   .           ",
"                                                                ",
"                                                                ",
"                           .                                    ",
"                                                                ",
"                                                                ",
" .               .                                       .      ",
"  .               .          .               .            .     ",
"                              .               .                 ",
"                                                                ",
"       .               .                                       .",
"      .               .            .               .          . ",
"                                  .               .             ",
"                                                                "};
