/* XPM */
static char * cat_top_xpm[] = {
"64 64 6 1",
" 	c #ADBC3A",
".	c #74A334",
"+	c #646466",
"@	c #D9D9DD",
"#	c #B7B7BB",
"$	c #FFFFFF",
"                                                                ",
"  .               .                                             ",
"   .               .          .               .           .     ",
"                               .               .           .    ",
"                                                                ",
"        .               .                                       ",
"       .               .            .               .           ",
"                                   .               .           .",
"                                                                ",
"                                                                ",
"                                                                ",
"                                                                ",
"                                                                ",
"                                                                ",
"                                                                ",
"                                                                ",
"                                                                ",
"         .        .                                             ",
"        .          .                 .        .                 ",
"                                    .          .                ",
"                                                                ",
"   .                    . +       +                             ",
"    .                  . +@+   . +@+                .      .    ",
"                        +#$@+++++@$#+              .        .   ",
"                        +@$$+@@@+$$@+                           ",
"                       +#@$$$$$$$$$@#+                          ",
"                       +#$$$$$$$$$$$#+                          ",
"                       +@$$$$$$$$$$$@+                          ",
"                       +@$$$$$$$$$$$@+                          ",
"  .               .    +#@$$$$$$$$$@#+        .   .             ",
"   .               .   +##@@@$$$@@@##+         .   .            ",
"                       +#+#@$$$$$@#+#+                          ",
"                        +#@+++$$$$@#+                           ",
"        .               +@+$$$+$$$@@+                   .       ",
"       .               .++$@++$$$@##+                  .        ",
"                        ++$+$$$$$$@#+                           ",
"                        ++@+$$$$$$$++                           ",
"                        ++#@+$$$$$$#+                           ",
"                        +@+#@+@$$$$@+                           ",
"                        +@$+#@+#$$$@+                           ",
"                        +#@$+#$$$$@@+                           ",
"                        +##@@@@@@@@@+                           ",
"                         +##+#####@@+                           ",
"                         +###++++@$#+                           ",
"                          +##+ +#$$+                            ",
"         .        .        ++  +@$@+ .        .          .      ",
"        .          .           +##+ .          .        .       ",
"                                                                ",
"                                                                ",
"   .                    .      .                   .            ",
"    .                  .        .                   .           ",
"                                                                ",
"                                                                ",
"                           .                                    ",
"                                                                ",
"                                                                ",
" .               .                                       .      ",
"  .               .          .               .            .     ",
"                              .               .                 ",
"                                                                ",
"       .               .                                       .",
"      .               .            .               .          . ",
"                                  .               .             ",
"                                                                "};
