/* XPM */
static char * poisson4_xpm[] = {
"64 64 320 2",
"  	c #ADBC3A",
". 	c #74A334",
"+ 	c #ACBB3E",
"@ 	c #AAB94B",
"# 	c #C1C6A2",
"$ 	c #D9D5DC",
"% 	c #DED8E0",
"& 	c #E2DBE2",
"* 	c #DFD8E0",
"= 	c #E0DAE2",
"- 	c #B6C16D",
"; 	c #ADBC3C",
"> 	c #A8B659",
", 	c #A0AE6B",
"' 	c #828C9D",
") 	c #8D97A7",
"! 	c #8D9CAB",
"~ 	c #7C9AAB",
"{ 	c #CED5DA",
"] 	c #E5E5E5",
"^ 	c #CDCDCD",
"/ 	c #D5CFD6",
"( 	c #DFD9E1",
"_ 	c #ADBC3B",
": 	c #A3B169",
"< 	c #8292A4",
"[ 	c #768698",
"} 	c #395E73",
"| 	c #87A0AF",
"1 	c #B3BABF",
"2 	c #BEC1C3",
"3 	c #DBDBDB",
"4 	c #A1A1A1",
"5 	c #B7B7B7",
"6 	c #A8A1A2",
"7 	c #DCD6DC",
"8 	c #A4B169",
"9 	c #A2AF70",
"0 	c #7F93A2",
"a 	c #6A91A7",
"b 	c #8EA0AB",
"c 	c #74828D",
"d 	c #588197",
"e 	c #638EA5",
"f 	c #A2AFB8",
"g 	c #C7C7C7",
"h 	c #BEBCBC",
"i 	c #BCB5B9",
"j 	c #CECDBB",
"k 	c #98A640",
"l 	c #869244",
"m 	c #737A7D",
"n 	c #7A8FA2",
"o 	c #6890A6",
"p 	c #A1AFB8",
"q 	c #ABADAF",
"r 	c #40657A",
"s 	c #809CAD",
"t 	c #B4BABF",
"u 	c #A39C9E",
"v 	c #ABA5AF",
"w 	c #ADBB4C",
"x 	c #B6C16B",
"y 	c #CCCDB1",
"z 	c #8C8E82",
"A 	c #445F76",
"B 	c #507087",
"C 	c #4F6F86",
"D 	c #9EABB4",
"E 	c #A6B1B9",
"F 	c #CACACA",
"G 	c #BBBCBD",
"H 	c #828D96",
"I 	c #929DA5",
"J 	c #BCBABA",
"K 	c #ACA7A8",
"L 	c #777078",
"M 	c #828C4B",
"N 	c #AAB93B",
"O 	c #B4C063",
"P 	c #C2C2B5",
"Q 	c #90929C",
"R 	c #90909B",
"S 	c #8F8D98",
"T 	c #708091",
"U 	c #487188",
"V 	c #99A6AF",
"W 	c #ABB5BC",
"X 	c #C4C5C6",
"Y 	c #C9C9C9",
"Z 	c #DADADA",
"` 	c #DCDCDC",
" .	c #94999D",
"..	c #9C9C9E",
"+.	c #908487",
"@.	c #4E495C",
"#.	c #A1AF3E",
"$.	c #B1BE55",
"%.	c #C9C8BF",
"&.	c #6F7986",
"*.	c #244B61",
"=.	c #112A45",
"-.	c #3E5D73",
";.	c #939DA5",
">.	c #C1C2C2",
",.	c #CBCBCB",
"'.	c #E4E4E4",
").	c #D0D0D0",
"!.	c #B0AFB0",
"~.	c #76767D",
"{.	c #5B636D",
"].	c #555463",
"^.	c #8A9549",
"/.	c #AFBD47",
"(.	c #D2CECB",
"_.	c #606C7B",
":.	c #275066",
"<.	c #163049",
"[.	c #3D5C71",
"}.	c #4B748B",
"|.	c #939CA4",
"1.	c #C2C3C3",
"2.	c #C8C8C8",
"3.	c #CECECE",
"4.	c #AAACAF",
"5.	c #818287",
"6.	c #9B9496",
"7.	c #666570",
"8.	c #889445",
"9.	c #535A4D",
"0.	c #545565",
"a.	c #2F3A51",
"b.	c #183C52",
"c.	c #3A586E",
"d.	c #4F788F",
"e.	c #4B768D",
"f.	c #55788D",
"g.	c #AAAEB2",
"h.	c #E8E8E8",
"i.	c #E9E9E9",
"j.	c #AEB0B2",
"k.	c #395060",
"l.	c #73747B",
"m.	c #958B8D",
"n.	c #605A65",
"o.	c #94A141",
"p.	c #ACBA3A",
"q.	c #9EAC3F",
"r.	c #2B3D59",
"s.	c #345B73",
"t.	c #5C7C90",
"u.	c #5F7F93",
"v.	c #A0A6AB",
"w.	c #C6C6C7",
"x.	c #D3D3D3",
"y.	c #C5C6C6",
"z.	c #A6A9AB",
"A.	c #6E7078",
"B.	c #9F9798",
"C.	c #797677",
"D.	c #8F9B43",
"E.	c #ACBB3A",
"F.	c #93A147",
"G.	c #47596E",
"H.	c #8E979F",
"I.	c #CFCFCF",
"J.	c #E7E7E7",
"K.	c #B6B7B8",
"L.	c #6D6F77",
"M.	c #9E9698",
"N.	c #7E7C78",
"O.	c #8D9943",
"P.	c #ADBC3E",
"Q.	c #B5BD84",
"R.	c #456078",
"S.	c #8298A7",
"T.	c #DDDDDD",
"U.	c #C6C6C6",
"V.	c #B7B4B5",
"W.	c #978F91",
"X.	c #817F78",
"Y.	c #8C9843",
"Z.	c #C1C795",
"`.	c #BCC0CC",
" +	c #8FA1AE",
".+	c #979FA5",
"++	c #B7B4B4",
"@+	c #91878A",
"#+	c #706C65",
"$+	c #8B9843",
"%+	c #C4C99C",
"&+	c #B6BDC7",
"*+	c #A0AEB8",
"=+	c #DEDEDE",
"-+	c #C0C0C1",
";+	c #B6B3B4",
">+	c #92878A",
",+	c #6E6964",
"'+	c #8D9A43",
")+	c #C6CAA1",
"!+	c #B0B9C2",
"~+	c #A5B1BA",
"{+	c #D7D7D7",
"]+	c #E1E1E1",
"^+	c #D2D2D2",
"/+	c #A4A6A9",
"(+	c #4D5D6A",
"_+	c #A5A3A5",
":+	c #B4B0B0",
"<+	c #77727B",
"[+	c #676363",
"}+	c #909C42",
"|+	c #C7CBA4",
"1+	c #A29FA3",
"2+	c #A9B1B8",
"3+	c #D1D1D1",
"4+	c #A2A5A8",
"5+	c #4F5F6B",
"6+	c #74757C",
"7+	c #736F77",
"8+	c #8E9A45",
"9+	c #93A042",
"0+	c #D4D3C6",
"a+	c #8496A8",
"b+	c #BEC0C2",
"c+	c #A9A7A8",
"d+	c #8D898C",
"e+	c #9D9698",
"f+	c #706B75",
"g+	c #939F46",
"h+	c #E7E9DD",
"i+	c #E9EBDF",
"j+	c #E9EBE0",
"k+	c #DFDDD7",
"l+	c #A3B1BC",
"m+	c #B1B8BE",
"n+	c #BBB9BA",
"o+	c #9F9899",
"p+	c #9D9496",
"q+	c #94898B",
"r+	c #65606C",
"s+	c #95A146",
"t+	c #E8E9E8",
"u+	c #597383",
"v+	c #5A7383",
"w+	c #556A79",
"x+	c #C2C4C5",
"y+	c #E5E6E6",
"z+	c #EEEEEE",
"A+	c #BEBCBD",
"B+	c #9D9597",
"C+	c #8B7F82",
"D+	c #67656D",
"E+	c #344A5B",
"F+	c #3A4257",
"G+	c #94A043",
"H+	c #AAB845",
"I+	c #444B4E",
"J+	c #3E4A50",
"K+	c #1A4055",
"L+	c #1B4358",
"M+	c #3C5B6E",
"N+	c #A7ACB0",
"O+	c #A19B9D",
"P+	c #BAB8B9",
"Q+	c #C5C4C5",
"R+	c #BEBEBF",
"S+	c #877B7F",
"T+	c #999193",
"U+	c #83767B",
"V+	c #827479",
"W+	c #66626C",
"X+	c #1D3F54",
"Y+	c #17324B",
"Z+	c #39414A",
"`+	c #9AA840",
" @	c #4D5B58",
".@	c #2F566D",
"+@	c #2D576D",
"@@	c #9BA2A7",
"#@	c #C1C0C0",
"$@	c #8C8488",
"%@	c #928B8E",
"&@	c #5B6250",
"*@	c #575E4C",
"=@	c #565E4B",
"-@	c #575F4C",
";@	c #97A441",
">@	c #9BA93F",
",@	c #666F4A",
"'@	c #4F5B4E",
")@	c #868D93",
"!@	c #AEB2B5",
"~@	c #88858A",
"{@	c #3D5162",
"]@	c #2C3450",
"^@	c #A9B83B",
"/@	c #95A241",
"(@	c #55665B",
"_@	c #2F586E",
":@	c #20495E",
"<@	c #2B576D",
"[@	c #2E3A54",
"}@	c #7C8747",
"|@	c #2E4F67",
"1@	c #2E3954",
"2@	c #99A740",
"3@	c #5B6B57",
"4@	c #1F4258",
"5@	c #56624D",
"6@	c #213E56",
"7@	c #2D3450",
"8@	c #68714A",
"9@	c #192845",
"0@	c #2C324E",
"a@	c #A4B23D",
"b@	c #545D4A",
"c@	c #2E334F",
"d@	c #5F674B",
"e@	c #30374E",
"                                                                                                                                ",
"    .                               .                                                                                           ",
"      .                               .                     .                               .                       .           ",
"                                                              .                               .                       .         ",
"                                                                                                                                ",
"                .                               .                                                                               ",
"              .                               .                         .                               .                       ",
"                                                                      .                               .                       . ",
"                                                                                                                                ",
"                                                                                                                                ",
"                                                                                                                                ",
"                                                                                                                                ",
"                                                                                                                                ",
"                                                                                                                                ",
"                                                                                                                                ",
"                                                                                                                                ",
"                                                                                                                                ",
"                  .                 .                                                                                           ",
"                .                     .                                   .                 .                                   ",
"                                                                        .                     .                                 ",
"                                                                              + @ @ # $ % & * = -                               ",
"      .                                         .                         ; > , ' ) ! ~ { ] ^ / (                               ",
"        .                                     .               .         _ : < [ } | 1 2 3 4 5 6 7       .             .         ",
"                                                                .     8 9 0 a b c d e f g g h i j     .                 .       ",
"                                                                k l l m n o p g q r s t g g u v w                               ",
"                                                        x y y y z A B C D E F 3 G H I g J K L M N                               ",
"                                                      O P Q R S T U V W X g Y Z ` G  ...6 +.@.#.                                ",
"                                                    $.%.&.*.=.-.U ;.>.g g g ,.'.).g !.~.{.].^.N                                 ",
"                                                  /.(._.:.<.[.}.|.1.g g g g 2.3.g 4.5.6.7.8.N                                   ",
"    .                               .             9.0.a.b.c.d.e.f.g.g h.,.Y i.g j.k.l.m.n.o..       .                           ",
"      .                               .           p.p.q.r.s.t.u.v.w.] x.2.g 2.y.z.A.B.C.D.E.  .       .                         ",
"                                                    E.F.G.H.g g g ^ I.J.,.g g K.L.M.N.O.                                        ",
"                                                  P.Q.R.S.g g g g T.h.^ g g U.V.W.X.Y.                                          ",
"                .                               . Z.`. +.+g 3.).g g g g g U.++@+#+$+                            .               ",
"              .                               . %+&+*+g g 3.=+=+).g z.-+g ;+>+,+'+                            .                 ",
"                                              )+!+~+g g g {+]+^+)./+(+_+:+<+[+}+                                                ",
"                                            |+1+2+U.g g g ^ 3+g 4+5+6+M.7+8+9+                                                  ",
"                                            0+a+b+g g g g g g g c+d+e+f+g+E.                                                    ",
"                            h+i+i+i+i+i+j+k+l+m+y.g g g g g n+o+p+q+r+s+E.                                                      ",
"                            t+u+v+v+v+v+w+4.x+y+z+Y U.U.A+B+C+D+E+F+G+E.                                                        ",
"                            H+I+J+K+L+L+M+N+O+P+Q+R+S+T+U+V+W+X+Y+Z+`+                                                          ",
"                                q. @.@+@@@g #@$@%@&@*@=@*@*@-@-@-@;@                                                            ",
"                                  >@,@'@)@!@~@{@]@^@                                                                            ",
"                                      /@(@_@:@<@[@^@                                                                            ",
"                                        }@|@:@<@1@^@                                                                            ",
"                  .                 .   2@3@4@<@1@^@                      .                 .                     .             ",
"                .                     .   >@5@6@7@^@                    .                     .                 .               ",
"                                            8@9@0@^@                                                                            ",
"                                            a@b@c@^@                                                                            ",
"      .                                       d@e@^@          .                                       .                         ",
"        .                                     .                 .                                       .                       ",
"                                                                                                                                ",
"                                                                                                                                ",
"                                                      .                                                                         ",
"                                                                                                                                ",
"                                                                                                                                ",
"  .                               .                                                                               .             ",
"    .                               .                     .                               .                         .           ",
"                                                            .                               .                                   ",
"                                                                                                                                ",
"              .                               .                                                                               . ",
"            .                               .                         .                               .                     .   ",
"                                                                    .                               .                           ",
"                                                                                                                                "};
