/* XPM */
static char * poisson3_xpm[] = {
"64 64 633 2",
"  	c #ADBC3A",
". 	c #74A334",
"+ 	c #BAC548",
"@ 	c #D7D963",
"# 	c #D4D761",
"$ 	c #CCCE6F",
"% 	c #E0DA89",
"& 	c #E0DB89",
"* 	c #CBC87C",
"= 	c #3A5722",
"- 	c #3D5A24",
"; 	c #3A5723",
"> 	c #D1D460",
", 	c #D5D861",
"' 	c #D4D760",
") 	c #D4D75F",
"! 	c #BCC055",
"~ 	c #666E27",
"{ 	c #717A30",
"] 	c #3F5A24",
"^ 	c #D3D279",
"/ 	c #DBD883",
"( 	c #DFDA88",
"_ 	c #C9BE75",
": 	c #AA9857",
"< 	c #AEA25C",
"[ 	c #B2B261",
"} 	c #9D9F52",
"| 	c #66673B",
"1 	c #66683C",
"2 	c #828245",
"3 	c #CED060",
"4 	c #969A41",
"5 	c #767C30",
"6 	c #C3C5B0",
"7 	c #EEEEE4",
"8 	c #CCCEB8",
"9 	c #7B8234",
"0 	c #687129",
"a 	c #67712B",
"b 	c #2F5122",
"c 	c #D5D47C",
"d 	c #CAC777",
"e 	c #BDBB6A",
"f 	c #B3B061",
"g 	c #A9A456",
"h 	c #9E9A51",
"i 	c #808044",
"j 	c #727835",
"k 	c #4B522D",
"l 	c #4B522E",
"m 	c #4A522D",
"n 	c #838839",
"o 	c #666E26",
"p 	c #606924",
"q 	c #C3C5BA",
"r 	c #C8C8C8",
"s 	c #7C7F6D",
"t 	c #6A732B",
"u 	c #66702C",
"v 	c #505E2D",
"w 	c #AEBD3E",
"x 	c #D0D176",
"y 	c #BBAE69",
"z 	c #BBAD69",
"A 	c #AB9F59",
"B 	c #A39750",
"C 	c #A8A255",
"D 	c #999A50",
"E 	c #6C703B",
"F 	c #4F552E",
"G 	c #445022",
"H 	c #394625",
"I 	c #384625",
"J 	c #5F6826",
"K 	c #636C26",
"L 	c #94997C",
"M 	c #8C9078",
"N 	c #5E6625",
"O 	c #656F2C",
"P 	c #44562E",
"Q 	c #305122",
"R 	c #B1BE44",
"S 	c #CCCE71",
"T 	c #C7C474",
"U 	c #A79E54",
"V 	c #A69D53",
"W 	c #94904C",
"X 	c #6D7238",
"Y 	c #4A5521",
"Z 	c #656F2A",
"` 	c #5F6A3F",
" .	c #787F6F",
"..	c #2E5020",
"+.	c #B4C04A",
"@.	c #C8CA6C",
"#.	c #C4B871",
"$.	c #A59C52",
"%.	c #A69C52",
"&.	c #ABA858",
"*.	c #989950",
"=.	c #6D7237",
"-.	c #4F5920",
";.	c #5A6320",
">.	c #606A24",
",.	c #5F6924",
"'.	c #56601D",
").	c #3A4725",
"!.	c #636D2C",
"~.	c #5B672D",
"{.	c #646E46",
"].	c #828776",
"^.	c #AAAE99",
"/.	c #2C4F1E",
"(.	c #B6C14D",
"_.	c #CAC576",
":.	c #A49850",
"<.	c #95924C",
"[.	c #6C7137",
"}.	c #5A6420",
"|.	c #69722A",
"1.	c #5E6823",
"2.	c #455122",
"3.	c #B19732",
"4.	c #84802D",
"5.	c #636E2C",
"6.	c #5A662D",
"7.	c #515F2E",
"8.	c #70795F",
"9.	c #AFB39E",
"0.	c #BEC2A4",
"a.	c #2B4E1D",
"b.	c #B5C14C",
"c.	c #C7CA6B",
"d.	c #CBC777",
"e.	c #ACAC59",
"f.	c #A8A355",
"g.	c #ADAD5A",
"h.	c #9B9C51",
"i.	c #686D36",
"j.	c #596320",
"k.	c #7B7B2C",
"l.	c #A69331",
"m.	c #69722B",
"n.	c #5D6622",
"o.	c #545F1D",
"p.	c #D4AE36",
"q.	c #BA9E34",
"r.	c #827D2E",
"s.	c #646E44",
"t.	c #90876E",
"u.	c #CAB08F",
"v.	c #A4AB8D",
"w.	c #6B7E29",
"x.	c #C7CB69",
"y.	c #D0CB7C",
"z.	c #AAA757",
"A.	c #A0904D",
"B.	c #A4A456",
"C.	c #5D6334",
"D.	c #4D551F",
"E.	c #555C1C",
"F.	c #7B7527",
"G.	c #86802D",
"H.	c #92872F",
"I.	c #E6BA3A",
"J.	c #94882F",
"K.	c #4F581A",
"L.	c #5D6625",
"M.	c #D1A934",
"N.	c #B29434",
"O.	c #75732F",
"P.	c #57642D",
"Q.	c #757D68",
"R.	c #B69580",
"S.	c #CF5F0C",
"T.	c #3D5B24",
"U.	c #B0BE40",
"V.	c #C8CB6B",
"W.	c #CAC177",
"X.	c #9E8A4B",
"Y.	c #ADAC5A",
"Z.	c #9E8A4A",
"`.	c #9A8548",
" +	c #6F6C3E",
".+	c #48512B",
"++	c #49471D",
"@+	c #504919",
"#+	c #C39C30",
"$+	c #D5B037",
"%+	c #797A2C",
"&+	c #817E2D",
"*+	c #FFCB3E",
"=+	c #807E2D",
"-+	c #26280A",
";+	c #030300",
">+	c #000000",
",+	c #D1A631",
"'+	c #C19F37",
")+	c #68662F",
"!+	c #959370",
"~+	c #BDA98C",
"{+	c #A14317",
"]+	c #3E5B24",
"^+	c #CBCE6F",
"/+	c #CCC878",
"(+	c #6E6D3F",
"_+	c #3F4A28",
":+	c #515B1F",
"<+	c #51501A",
"[+	c #5F6324",
"}+	c #C6A635",
"|+	c #FECB3E",
"1+	c #DEB539",
"2+	c #6E752B",
"3+	c #FECA3E",
"4+	c #FFCC3E",
"5+	c #777A2E",
"6+	c #2C2D0E",
"7+	c #0C0C02",
"8+	c #FFC42E",
"9+	c #E99F0B",
"0+	c #BA530A",
"a+	c #A04517",
"b+	c #425E24",
"c+	c #CCC979",
"d+	c #A7A154",
"e+	c #9D8749",
"f+	c #3D4826",
"g+	c #4A461B",
"h+	c #606626",
"i+	c #5A5C21",
"j+	c #5D5F23",
"k+	c #BEA134",
"l+	c #EABD3B",
"m+	c #67722B",
"n+	c #6F752B",
"o+	c #B1AF59",
"p+	c #9F8C4B",
"q+	c #797834",
"r+	c #D8A81C",
"s+	c #F49707",
"t+	c #E96800",
"u+	c #D45B09",
"v+	c #974519",
"w+	c #546B26",
"x+	c #798B2E",
"y+	c #7C763D",
"z+	c #9F8A4B",
"A+	c #A39650",
"B+	c #ABAA59",
"C+	c #6F6D3F",
"D+	c #3A4726",
"E+	c #535D1E",
"F+	c #545E1C",
"G+	c #D8AF35",
"H+	c #BB9F34",
"I+	c #68722B",
"J+	c #B29A32",
"K+	c #F6C640",
"L+	c #AAAB59",
"M+	c #9E894A",
"N+	c #A0914D",
"O+	c #D2772B",
"P+	c #CD580C",
"Q+	c #B04114",
"R+	c #AF4113",
"S+	c #9E4F25",
"T+	c #888651",
"U+	c #DFDA87",
"V+	c #76882D",
"W+	c #838845",
"X+	c #ABA958",
"Y+	c #ACAB59",
"Z+	c #AAA657",
"`+	c #9D8A4A",
" @	c #404B29",
".@	c #535D1D",
"+@	c #BCBE55",
"@@	c #A2A042",
"#@	c #CEAB36",
"$@	c #BFA234",
"%@	c #69732B",
"&@	c #8A8B3E",
"*@	c #B9B157",
"=@	c #B8B158",
"-@	c #A1904D",
";@	c #D58435",
">@	c #F19809",
",@	c #DE9210",
"'@	c #BC7B2A",
")@	c #A7923F",
"!@	c #8A8752",
"~@	c #848A46",
"{@	c #A9A356",
"]@	c #A4A054",
"^@	c #787140",
"/@	c #4E4C1A",
"(@	c #777531",
"_@	c #B1B350",
":@	c #AFA946",
"<@	c #C7A735",
"[@	c #CDB146",
"}@	c #A5A655",
"|@	c #A1914D",
"1@	c #AAA557",
"2@	c #A1914E",
"3@	c #E1BD4A",
"4@	c #F6BE3C",
"5@	c #E59C27",
"6@	c #C78B2B",
"7@	c #B39541",
"8@	c #978645",
"9@	c #7E7D48",
"0@	c #BDBB69",
"a@	c #D7D57F",
"b@	c #52792A",
"c@	c #978B4B",
"d@	c #827A44",
"e@	c #848448",
"f@	c #6B6B3E",
"g@	c #47461D",
"h@	c #4D4518",
"i@	c #A7A74B",
"j@	c #A4A749",
"k@	c #ADB14E",
"l@	c #C4BB53",
"m@	c #BDAA51",
"n@	c #A3954F",
"o@	c #A8A155",
"p@	c #8A8D43",
"q@	c #E8B72E",
"r@	c #E7A427",
"s@	c #CA9131",
"t@	c #A08634",
"u@	c #7B7638",
"v@	c #857944",
"w@	c #94884A",
"x@	c #B1B15E",
"y@	c #E2DC8C",
"z@	c #5F6E35",
"A@	c #76793D",
"B@	c #666735",
"C@	c #505D31",
"D@	c #555F33",
"E@	c #6C6B3E",
"F@	c #51541A",
"G@	c #A6A74A",
"H@	c #A6A94A",
"I@	c #AAAE4D",
"J@	c #A9AB52",
"K@	c #A69E53",
"L@	c #DFBE4C",
"M@	c #D2AF3A",
"N@	c #DB981E",
"O@	c #CA8E2B",
"P@	c #A18534",
"Q@	c #868C32",
"R@	c #768531",
"S@	c #72753D",
"T@	c #A99E56",
"U@	c #E3DD8C",
"V@	c #65792A",
"W@	c #819330",
"X@	c #889636",
"Y@	c #AAAB52",
"Z@	c #364424",
"`@	c #A5A949",
" #	c #ABAF4D",
".#	c #C2A83B",
"+#	c #E1C54B",
"@#	c #B1A440",
"##	c #7F853B",
"$#	c #9E9F50",
"%#	c #ACAD5A",
"&#	c #909347",
"*#	c #C5A636",
"=#	c #F9C73D",
"-#	c #E59B2F",
";#	c #C9872E",
">#	c #886D2A",
",#	c #7F912F",
"'#	c #9EAD36",
")#	c #829037",
"!#	c #878845",
"~#	c #A38E4F",
"{#	c #91A133",
"]#	c #98A735",
"^#	c #86AB3C",
"/#	c #D3D561",
"(#	c #445021",
"_#	c #ACB04D",
":#	c #A5A94A",
"<#	c #C8AB3B",
"[#	c #D0AC37",
"}#	c #AE9D3F",
"|#	c #95974A",
"1#	c #9C9B4A",
"2#	c #D6BA4F",
"3#	c #B78B30",
"4#	c #B68A30",
"5#	c #F3B639",
"6#	c #E6992F",
"7#	c #CB862D",
"8#	c #886A28",
"9#	c #96A634",
"0#	c #4F5B2B",
"a#	c #A38F4F",
"b#	c #B3C041",
"c#	c #5C6521",
"d#	c #B4B852",
"e#	c #808737",
"f#	c #B69C33",
"g#	c #EEC03B",
"h#	c #E2B839",
"i#	c #B09932",
"j#	c #A59231",
"k#	c #7A7B2C",
"l#	c #DCB438",
"m#	c #F8B339",
"n#	c #F4A436",
"o#	c #F7B139",
"p#	c #CE8C2E",
"q#	c #A98935",
"r#	c #868933",
"s#	c #9EAE36",
"t#	c #738030",
"u#	c #8B8044",
"v#	c #D2D278",
"w#	c #B2C040",
"x#	c #B7C346",
"y#	c #BCC64A",
"z#	c #646E2C",
"A#	c #B59B34",
"B#	c #F1C13C",
"C#	c #EFC03B",
"D#	c #9D8C30",
"E#	c #9C822E",
"F#	c #FDC33C",
"G#	c #F7AF38",
"H#	c #F2C13E",
"I#	c #BDA43E",
"J#	c #7F8232",
"K#	c #A0B037",
"L#	c #3E5A24",
"M#	c #B3BF47",
"N#	c #C4CA58",
"O#	c #D2D462",
"P#	c #D0D261",
"Q#	c #D0D060",
"R#	c #C8CB5D",
"S#	c #545F1C",
"T#	c #67702B",
"U#	c #4E5D2E",
"V#	c #626C2C",
"W#	c #55622E",
"X#	c #5C682D",
"Y#	c #58642D",
"Z#	c #AD9135",
"`#	c #F7C53D",
" $	c #FFCA3E",
".$	c #FDC53D",
"+$	c #F5A937",
"@$	c #E99E37",
"#$	c #F8C63E",
"$$	c #C1A843",
"%$	c #676C2D",
"&$	c #8FA033",
"*$	c #A2B137",
"=$	c #556B27",
"-$	c #AFBD3E",
";$	c #D8D582",
">$	c #E0DA8A",
",$	c #E0DB8B",
"'$	c #999851",
")$	c #7B7342",
"!$	c #948045",
"~$	c #344323",
"{$	c #57611E",
"]$	c #47582F",
"^$	c #505E2E",
"/$	c #5F6A2C",
"($	c #56632D",
"_$	c #45572F",
":$	c #4C592F",
"<$	c #A68D35",
"[$	c #FAC23D",
"}$	c #F1A537",
"|$	c #FAC83E",
"1$	c #6B6C3F",
"2$	c #B5A343",
"3$	c #9E8A47",
"4$	c #5E642F",
"5$	c #90A033",
"6$	c #898752",
"7$	c #9D9D53",
"8$	c #A59A51",
"9$	c #958146",
"0$	c #6B732B",
"a$	c #4A5A2F",
"b$	c #485D25",
"c$	c #2D4F22",
"d$	c #3B5329",
"e$	c #B69836",
"f$	c #ECC040",
"g$	c #AB9941",
"h$	c #57503A",
"i$	c #59523A",
"j$	c #9E8749",
"k$	c #6F6D40",
"l$	c #385327",
"m$	c #9AA935",
"n$	c #E3DD8B",
"o$	c #A49051",
"p$	c #9C8749",
"q$	c #A7A054",
"r$	c #938147",
"s$	c #757040",
"t$	c #48582F",
"u$	c #46572F",
"v$	c #355125",
"w$	c #ACBB3A",
"x$	c #81922F",
"y$	c #847F33",
"z$	c #A59340",
"A$	c #5C543A",
"B$	c #5C553A",
"C$	c #6D6C3F",
"D$	c #9E8849",
"E$	c #395325",
"F$	c #536635",
"G$	c #A8A757",
"H$	c #ACAA59",
"I$	c #A59B52",
"J$	c #958247",
"K$	c #746F40",
"L$	c #998448",
"M$	c #435628",
"N$	c #97A735",
"O$	c #ABBA39",
"P$	c #829330",
"Q$	c #4C552E",
"R$	c #63593B",
"S$	c #62583B",
"T$	c #62583C",
"U$	c #304F23",
"V$	c #A3B238",
"W$	c #2C4F21",
"X$	c #A8A958",
"Y$	c #A79F53",
"Z$	c #A4A154",
"`$	c #6F6C3F",
" %	c #6D603E",
".%	c #365125",
"+%	c #9DAC36",
"@%	c #45502E",
"#%	c #71643E",
"$%	c #96874A",
"%%	c #9D9C53",
"&%	c #695E3D",
"*%	c #395028",
"=%	c #9CAB36",
"-%	c #ABBA3A",
";%	c #A9A958",
">%	c #798141",
",%	c #6B763A",
"'%	c #656C35",
")%	c #8F904A",
"!%	c #A49951",
"~%	c #A9A556",
"{%	c #AAA858",
"]%	c #918147",
"^%	c #A9A355",
"/%	c #5D553B",
"(%	c #334F25",
"_%	c #6D763C",
":%	c #9B934F",
"<%	c #A7A757",
"[%	c #40512A",
"}%	c #94A434",
"|%	c #8C9C32",
"1%	c #78813F",
"2%	c #889734",
"3%	c #8B9C32",
"4%	c #818E39",
"5%	c #73773B",
"6%	c #898746",
"7%	c #9D884A",
"8%	c #74753B",
"9%	c #9E9950",
"0%	c #79823F",
"a%	c #879731",
"b%	c #A7B639",
"c%	c #99A935",
"d%	c #849530",
"e%	c #829038",
"f%	c #8D914A",
"g%	c #9AAA35",
"h%	c #7D8634",
"i%	c #78773C",
"j%	c #818A40",
"k%	c #889931",
"l%	c #808E36",
"m%	c #8A8E48",
"n%	c #A49A51",
"o%	c #8F8D4D",
"p%	c #65603D",
"q%	c #9BAB35",
"r%	c #7D8F2F",
"s%	c #899931",
"t%	c #465B2B",
"u%	c #949250",
"v%	c #796940",
"w%	c #5C6336",
"x%	c #71832D",
"y%	c #A6B538",
"z%	c #8D9C35",
"A%	c #657038",
"B%	c #625B3C",
"C%	c #8F7C45",
"D%	c #315023",
"E%	c #8F9F33",
"F%	c #5F6D35",
"G%	c #A0A054",
"H%	c #555137",
"I%	c #516827",
"J%	c #4C5E2C",
"K%	c #716E3F",
"L%	c #988447",
"M%	c #3C5923",
"N%	c #689430",
"O%	c #2D5022",
"P%	c #385722",
"                                                                                                                                ",
"    .                               .                                                                                           ",
"      .                               .                     .                               .                       .           ",
"                                                              .                               .                       .         ",
"                                                                                                                                ",
"                .                               .                                                                               ",
"              .                               .                         .                               .                       ",
"                                                                      .                               .                       . ",
"                                                                                                                                ",
"                                                                                                                                ",
"                                                                                                                                ",
"                                                                                                                                ",
"                                                                                                                                ",
"                                                                                                                                ",
"                                                                                            + @ #                               ",
"                                                              $ % & % * = - ; > # # , ' ) ' ! ~ { ]                             ",
"                                                          ^ / ( _ : < [ } | 1 2 3 4 5 6 7 8 9 0 a b                             ",
"                  .                 .                 c c % d e f g h i j k l m n o p q r s t u v b                             ",
"                .                     .           w x y z z A B C D E F G H H I J K 0 L M N t O P Q                             ",
"                                                R S T U V V V V W X Y Y Y Y Y H Z t t t t t O `  ...                            ",
"                                              +.@.#.$.%.%.%.&.*.=.-.;.>.,.'.'.).Z t t t !.~.{.].^./.                            ",
"      .                                     (.@._.B :.:.:.:.<.[.-.}.K t |.1.'.2.3.4.t 5.6.7.8.9.0.a.                            ",
"        .                                 b.c.d.e.f.g.g.g.h.i.-.j.K t k.l.m.n.o.p.q.r.6.6.s.t.u.v.w.    .             .         ",
"                                          x.y.z.g A.z.z.B.C.D.E.F.G.t H.I.J.t K.L.M.N.O.P.Q.R.S.T.    .                 .       ",
"                                        U.V.W.X.A.Y.Z.`. +.+++@+#+$+%+t &+*+=+-+;+>+,+'+)+!+~+{+]+                              ",
"                                        ^+/+g.g.g.Y.g.(+_+:+<+[+}+|+1+2+&+3+4+5+6+7+,+*+8+9+0+a+b+                              ",
"                                        ^+c+d+e+e+e+e+f+H g+h+i+j+k+*+l+m+n+4+o+p+q+r+s+t+u+v+w+                                ",
"                                      x+y+z+A+Y.Y.B+C+D+E+F+G+H+I+2+J+*+K+L+o+M+&.N+O+P+Q+R+S+T+U+                              ",
"                                      V+W+X+Y+Z+p+`+ @H .@+@@@#@$@%@&@*@=@Y.p+&.-@C ;@>@,@'@)@!@&                               ",
"    .                               . V+~@g.{@A+]@^@I H /@(@_@:@<@[@}@&.|@|@1@2@f.3@4@5@6@7@8@9@0@a@.                           ",
"      .                               b@~@f.c@d@e@f@I g@h@i@j@k@l@m@n@:.o@C g.C p@q@r@s@t@u@v@w@x@y@  .                         ",
"                                      V+z@A@B@C@D@E@I F@G@H@k@I@J@z.K@o@g.g.g.L@M@N@O@P@Q@R@S@V T@U@                            ",
"                                      V+V@W@W@W@X@Y@Z@`@ #.#+#@###$#g.g.g.%#&#*#=#-#;#>#,#'#)#!#~#U@                            ",
"                .                     {#]#      ^#/#(#_#:#<#[#}+k+}#|#|#1#2#3#4#5#6#7#8#,#  9#0#a#U@            .               ",
"              .                               . b#/#F+c#d#e#t f#g#h#i#j#k#l#m#n#o#p#q#r#{#  s#t#u#v#          .                 ",
"                                        w#x#x#x#y#/#F+t z#m.O a A#B#*+C#D#E#F#G#H#I#J#{#      K#L#                              ",
"                                  M#+.+.N#O#P#3 Q#R#S#T#U#V#W#X#Y#Z#`# $.$+$@$#$$$%$&$        *$=$                              ",
"                                -$;$>$,$T Y+'$)$!$~${$]$T#^$/$($_$:$<$[$}$|$1$2$3$4$5$                                          ",
"                                & 6$7$g.8$e+e+e+9$).t 0$a$z#b$c$d$e$f$g$h$i$j$k$l$m$                                            ",
"                              n$o$p$e+e+%.g.q$r$s$e+p$t$u$v${#w$x$y$z$A$B$C$D$E$*$                                              ",
"                              F$G$H$H$H$I$X.B C J$K$e+L$M$N$O$  P$Q$R$i$S$`.T$U$V$                                              ",
"                              W$X$g.g.$.$.z.Y$n@Z$`$e+ %.%+%    P$@%#%$%%%&%*%=%-%                                              ",
"                              W$;%>%,%'%)%C !%~%{%]%^%/%(%+%    P$_%:%A.<%[%}%w$                                                ",
"                              |%1%2%3%3%4%5%6%g.X+7%g./%(%+%    P$8%8$9%0%|%                                                    ",
"                                a%b%    c%d%e%f%X+7%g./%(%+%    g%h%i%j%k%                                                      ",
"                  .                 .       '#l%m%n%o%p%v$+%      q%r%s%  .                 .                     .             ",
"                .                     .       m$t%u%v%w%x%V$            .                     .                 .               ",
"                                            y%z%A%B%C%D%y%                                                                      ",
"                                            E%F%G%K$H%I%b%                                                                      ",
"      .                                     {#J%K%L%M%w$      .                                       .                         ",
"        .                                     N%O%P%            .                                       .                       ",
"                                                                                                                                ",
"                                                                                                                                ",
"                                                      .                                                                         ",
"                                                                                                                                ",
"                                                                                                                                ",
"  .                               .                                                                               .             ",
"    .                               .                     .                               .                         .           ",
"                                                            .                               .                                   ",
"                                                                                                                                ",
"              .                               .                                                                               . ",
"            .                               .                         .                               .                     .   ",
"                                                                    .                               .                           ",
"                                                                                                                                "};
