/* XPM */
static char * poisson2_xpm[] = {
"64 64 263 2",
"  	c #ADBC3A",
". 	c #74A334",
"+ 	c #E1CAB3",
"@ 	c #E8CDBF",
"# 	c #E9CEC0",
"$ 	c #E7CCBE",
"% 	c #2D2B25",
"& 	c #22231D",
"* 	c #272721",
"= 	c #2A2923",
"- 	c #515728",
"; 	c #AEBC3E",
"> 	c #E1CAB2",
", 	c #E7CEBF",
"' 	c #E7CEC2",
") 	c #BAA69C",
"! 	c #776D69",
"~ 	c #938680",
"{ 	c #E7CEC1",
"] 	c #726762",
"^ 	c #706560",
"/ 	c #6F635E",
"( 	c #6D605B",
"_ 	c #867770",
": 	c #E8CEC2",
"< 	c #D7C0B5",
"[ 	c #8B7D77",
"} 	c #373737",
"| 	c #3C3D35",
"1 	c #525828",
"2 	c #B4BE54",
"3 	c #D7C7A2",
"4 	c #E8CEC1",
"5 	c #B9A69D",
"6 	c #7C726E",
"7 	c #4F4F4F",
"8 	c #5C5856",
"9 	c #978881",
"0 	c #3C3C3C",
"a 	c #3A3A3A",
"b 	c #846B5F",
"c 	c #775F55",
"d 	c #373232",
"e 	c #4E4946",
"f 	c #988981",
"g 	c #988881",
"h 	c #675E5A",
"i 	c #B9BF63",
"j 	c #D1C698",
"k 	c #E7CDC1",
"l 	c #B5A39A",
"m 	c #B4A29A",
"n 	c #796F6A",
"o 	c #454545",
"p 	c #474747",
"q 	c #3F3F3F",
"r 	c #796257",
"s 	c #6C574D",
"t 	c #343232",
"u 	c #3E3E3E",
"v 	c #B3B3B3",
"w 	c #777777",
"x 	c #8FAA5E",
"y 	c #D1C697",
"z 	c #E4CABD",
"A 	c #C5B0A6",
"B 	c #545353",
"C 	c #424242",
"D 	c #393434",
"E 	c #312D2D",
"F 	c #302F2F",
"G 	c #414141",
"H 	c #F1F1F1",
"I 	c #D2D2D2",
"J 	c #858585",
"K 	c #82A74B",
"L 	c #E5CABE",
"M 	c #CFB9AF",
"N 	c #434445",
"O 	c #E6E6E6",
"P 	c #616161",
"Q 	c #303030",
"R 	c #373636",
"S 	c #E9CDC0",
"T 	c #C6AFA5",
"U 	c #535454",
"V 	c #565656",
"W 	c #333333",
"X 	c #393939",
"Y 	c #393737",
"Z 	c #362F2F",
"` 	c #C2ADA3",
" .	c #393333",
"..	c #3B3B3B",
"+.	c #393535",
"@.	c #332E2E",
"#.	c #2C2C2C",
"$.	c #393636",
"%.	c #342D2D",
"&.	c #2A2424",
"*.	c #BFAAA0",
"=.	c #716864",
"-.	c #383232",
";.	c #3A3838",
">.	c #383333",
",.	c #3A3939",
"'.	c #353333",
").	c #2C2B2B",
"!.	c #332D2D",
"~.	c #2C2626",
"{.	c #292424",
"].	c #CFC593",
"^.	c #B7A892",
"/.	c #827772",
"(.	c #464444",
"_.	c #312C2C",
":.	c #292626",
"<.	c #B2A28A",
"[.	c #7D726D",
"}.	c #4E4E4E",
"|.	c #474545",
"1.	c #4D4D4D",
"2.	c #535353",
"3.	c #424141",
"4.	c #322D2D",
"5.	c #2E2A2A",
"6.	c #4E5327",
"7.	c #404040",
"8.	c #505050",
"9.	c #4D4C4C",
"0.	c #393838",
"a.	c #434343",
"b.	c #555555",
"c.	c #4F4D4D",
"d.	c #2E2B2B",
"e.	c #484848",
"f.	c #4C4B4B",
"g.	c #383131",
"h.	c #545454",
"i.	c #515050",
"j.	c #413F3F",
"k.	c #494949",
"l.	c #444343",
"m.	c #302A2A",
"n.	c #322C2C",
"o.	c #353232",
"p.	c #403F3F",
"q.	c #3C3A3A",
"r.	c #2F2929",
"s.	c #322F2F",
"t.	c #2A2922",
"u.	c #444444",
"v.	c #403E3E",
"w.	c #363333",
"x.	c #383636",
"y.	c #3F3E3E",
"z.	c #2D2828",
"A.	c #434242",
"B.	c #464646",
"C.	c #474A38",
"D.	c #7A842E",
"E.	c #6F782D",
"F.	c #545743",
"G.	c #3F3D3D",
"H.	c #302D2D",
"I.	c #AAB939",
"J.	c #6C752C",
"K.	c #282323",
"L.	c #515151",
"M.	c #4E4D4D",
"N.	c #41413B",
"O.	c #565D28",
"P.	c #4D5327",
"Q.	c #282424",
"R.	c #2C2828",
"S.	c #6E762C",
"T.	c #4D5326",
"U.	c #3E3D3D",
"V.	c #363535",
"W.	c #7D8732",
"X.	c #A9B839",
"Y.	c #ACBB3A",
"Z.	c #656D27",
"`.	c #BEAB9D",
" +	c #82756F",
".+	c #383838",
"++	c #2E2828",
"@+	c #403D3D",
"#+	c #4B4B4B",
"$+	c #353434",
"%+	c #7F8933",
"&+	c #A2B037",
"*+	c #A7B539",
"=+	c #7C8632",
"-+	c #B19E94",
";+	c #A9978F",
">+	c #706661",
",+	c #363232",
"'+	c #312A2A",
")+	c #434141",
"!+	c #454444",
"~+	c #383737",
"{+	c #414040",
"]+	c #7D8832",
"^+	c #A1AF37",
"/+	c #919D33",
"(+	c #8C9832",
"_+	c #8E9645",
":+	c #9C8B83",
"<+	c #6D645F",
"[+	c #3E3C3C",
"}+	c #363434",
"|+	c #3B3A3A",
"1+	c #545937",
"2+	c #747E2E",
"3+	c #747D2D",
"4+	c #A6B438",
"5+	c #9EAC37",
"6+	c #494E29",
"7+	c #272626",
"8+	c #292727",
"9+	c #292828",
"0+	c #5E5550",
"a+	c #D4BDB2",
"b+	c #655D59",
"c+	c #352F2F",
"d+	c #2F2A2A",
"e+	c #3A3737",
"f+	c #505532",
"g+	c #575D29",
"h+	c #7D882F",
"i+	c #272523",
"j+	c #2F2F2F",
"k+	c #353535",
"l+	c #2B2C2D",
"m+	c #363737",
"n+	c #393A3A",
"o+	c #36312C",
"p+	c #313224",
"q+	c #313123",
"r+	c #929E34",
"s+	c #343434",
"t+	c #302B2B",
"u+	c #6E772C",
"v+	c #313131",
"w+	c #363636",
"x+	c #363131",
"y+	c #6F772E",
"z+	c #9DAA36",
"A+	c #838E31",
"B+	c #444730",
"C+	c #343333",
"D+	c #343030",
"E+	c #808B30",
"F+	c #2B2727",
"G+	c #656D2B",
"H+	c #404332",
"I+	c #312F2F",
"J+	c #272323",
"K+	c #57792C",
"L+	c #70792D",
"M+	c #272823",
"N+	c #818C30",
"                                                                                                                                ",
"    .                               .                                                                                           ",
"      .                               .                     .                               .                       .           ",
"                                                              .                               .                       .         ",
"                                                                                                                                ",
"                .                               .                                                                               ",
"              .                               .                         .                               .                       ",
"                                                                      .                               .                       . ",
"                                                                                                                                ",
"                                                                                                                                ",
"                                                                                                                                ",
"                                                                                                                                ",
"                                                                                                                                ",
"                                                                                                                                ",
"                                                                                                                                ",
"                                                                                                                                ",
"                                                                                                                                ",
"                  .                 .                     + @ @ # # @ # # # # # # $ % & * = = -                                 ",
"                .                     .               ; > , ' ) ! ~ { ] ^ ^ / ( _ : < < [ } } | 1                               ",
"                                                    2 3 4 ' 5 6 7 8 9 0 a b c d e f g g h a a } =                               ",
"                                                  i j k l m n o p q a a a r s t a u v v w a a } =                               ",
"      .                                         x y z A B 7 C a a a a a a D E F a G H I J a a } =                               ",
"        .                                     K j L M N p 0 a a a a a a a D E F a G O P Q a a R =       .             .         ",
"                                              3 S T U V V q a a a a a a a D E F a a W X a a Y Z =     .                 .       ",
"                                              3 4 `  . ...a a a a a a a a a +.@.#.a a a a $.%.&.=                               ",
"                                              3 *.=.-.;.>.,.a a a a a a a a ,.'.).a a a +.!.~.{.=                               ",
"                                            ].^./.(.-.+.Y a a a a a a a a a a q o Q +.+.-._.:.:.=                               ",
"                                            <.[.}.|.-.+.$.,.a a a a a a a a C 1.2.3.4.4.4.E 5.:.=                               ",
"                                            6.7.8.9.-.0.D ,.a a a a a a C a.1.V b.c.d.d.d.@.%.{.=                               ",
"    .                               .       6.e.b.f.g.g.a a a a a a a 0 2.b.h.h.i.g.-.-.-.g.%.{.=   .                           ",
"      .                               .     6.0 o j.g.g.a a a a a a a V V o a a a a a a a $.%.{.=     .                         ",
"                                            6.k.l.m.-.a g.,.a a a a a 0 0 ..a a a a a a +.n.o.7.=                               ",
"                                            6.p.q.r.g.>.;.a a a a a a a a a a a a a a a s.~.o.G t.                              ",
"                .                           6.u.v.~.n.Y a a a a a a a a a a a a a a a $.w.x.y.G t.              .               ",
"              .                             6.k.l.&.z.a a a a a a a a a a a a a a a $.+.A.B.G C.D.            .                 ",
"                                            E.F.G.~.H.a a a a a a a a a a a a a a ;.>.0 }.}.0 6.                                ",
"                                            I.J.K.H.a a a a a a a a a a a a a ,.0.-.0 u.L.M.N.O.                                ",
"                                            P.Q.&.H.a a a a a a a ,.g.a a a $.%.R.a V e.L.A.S.                                  ",
"                                            T.K.s.X a a a a a $.-.>.,.a >.-.n.H.U.h.V e.V.W.X.                                  ",
"                                        Y.Z.`. +.+a a a a a $.$.+.g.D D m.++@+k.o V #+$+%+&+                                    ",
"                                      *+=+-+;+>+a a a a a $.>.>.,+'+'+'+)+G.!+B.~+{+R ]+^+                                      ",
"                              /+(+(+(+_+:+' <+a a a a Y Y -.g.Z >.[+}+G.M.a.|+1+2+2+3+4+                                        ",
"                            5+6+7+8+9+0+a+a+b+a ,.0.V.c+c+c+c+d+e+1.7.7 A.f+g+h+                                                ",
"                            i+j+Q k+} Q l+m+n+a +.o+p+p+p+p+p+p+p+q+p+q+p+r+                                                    ",
"                            = ~+a k+s+a a a a D t+u+                                                                            ",
"                  .         = F v+k+w+W a v+d g.t+u+                      .                 .                     .             ",
"                .           = k+} k+k+} W x+g.t+y+z+                    .                     .                 .               ",
"                            A+B+C+k+k+$+D+g.g.z.E+                                                                              ",
"                              6.j+k+k+D+g.%.!.F+E+                                                                              ",
"      .                       G+H+W I+Z c+{.{.J+K+            .                                       .                         ",
"        .                       L+= = = = = = M+N+              .                                       .                       ",
"                                                                                                                                ",
"                                                                                                                                ",
"                                                      .                                                                         ",
"                                                                                                                                ",
"                                                                                                                                ",
"  .                               .                                                                               .             ",
"    .                               .                     .                               .                         .           ",
"                                                            .                               .                                   ",
"                                                                                                                                ",
"              .                               .                                                                               . ",
"            .                               .                         .                               .                     .   ",
"                                                                    .                               .                           ",
"                                                                                                                                "};
