/* XPM */
static char * poisson1_xpm[] = {
"64 64 419 2",
"  	c #ADBC3A",
". 	c #74A334",
"+ 	c #D9C773",
"@ 	c #FFD399",
"# 	c #F3CF8D",
"$ 	c #F2B269",
"% 	c #F4B16B",
"& 	c #F3B069",
"* 	c #CAB84E",
"= 	c #D0C179",
"- 	c #FCD297",
"; 	c #FED398",
"> 	c #FFD49A",
", 	c #FED49A",
"' 	c #F6D192",
") 	c #B0BC3C",
"! 	c #F0B169",
"~ 	c #F0B269",
"{ 	c #B55B30",
"] 	c #B1552C",
"^ 	c #B2552C",
"/ 	c #E3D1CC",
"( 	c #9A9A92",
"_ 	c #4C4424",
": 	c #C7A476",
"< 	c #FFB97D",
"[ 	c #FF8C44",
"} 	c #FF8D46",
"| 	c #F98943",
"1 	c #A85E21",
"2 	c #B4BB40",
"3 	c #E9B064",
"4 	c #B96235",
"5 	c #B96336",
"6 	c #954942",
"7 	c #EC7632",
"8 	c #813A14",
"9 	c #D5D3D2",
"0 	c #E5E5E5",
"a 	c #979797",
"b 	c #BF6E3B",
"c 	c #FAC5AD",
"d 	c #F4E9E2",
"e 	c #F8C8B9",
"f 	c #FF8233",
"g 	c #F87D31",
"h 	c #A74B1E",
"i 	c #B9BA43",
"j 	c #E1AE5E",
"k 	c #BF6D3E",
"l 	c #97483F",
"m 	c #EB752E",
"n 	c #E87639",
"o 	c #BD6042",
"p 	c #532619",
"q 	c #D2D2D2",
"r 	c #F2F2F2",
"s 	c #A5A5A5",
"t 	c #BF6024",
"u 	c #F9C2B1",
"v 	c #CDCDCD",
"w 	c #BD8572",
"x 	c #BCBA46",
"y 	c #DBAB5A",
"z 	c #C47545",
"A 	c #9C493C",
"B 	c #E0723B",
"C 	c #C16342",
"D 	c #E16325",
"E 	c #C04D2E",
"F 	c #551D0F",
"G 	c #FD9D75",
"H 	c #EA9A7C",
"I 	c #E3732C",
"J 	c #FA7E31",
"K 	c #C1491A",
"L 	c #AA802A",
"M 	c #C4B94C",
"N 	c #EAA363",
"O 	c #AD4720",
"P 	c #D96F3D",
"Q 	c #C96640",
"R 	c #B74A33",
"S 	c #EA6D2A",
"T 	c #EC6F2A",
"U 	c #CF6626",
"V 	c #AF9790",
"W 	c #DBDBDB",
"X 	c #D6D6D6",
"Y 	c #B69389",
"Z 	c #DA6E2A",
"` 	c #FB7E31",
" .	c #CD4917",
"..	c #A8431C",
"+.	c #B8AF40",
"@.	c #CB7C49",
"#.	c #AF471D",
"$.	c #E76A28",
"%.	c #D46C3E",
"&.	c #E96C28",
"*.	c #FE8133",
"=.	c #8E4618",
"-.	c #C7C7C7",
";.	c #AEAEAE",
">.	c #A64A19",
",.	c #F2752D",
"'.	c #E56726",
").	c #ACA634",
"!.	c #A8421C",
"~.	c #B0471D",
"{.	c #E96B28",
"].	c #FF8234",
"^.	c #FFAF73",
"/.	c #FF8436",
"(.	c #FFAB6E",
"_.	c #FF8B44",
":.	c #CE6827",
"<.	c #B69D96",
"[.	c #A58682",
"}.	c #C2521C",
"|.	c #F2742C",
"1.	c #F97C30",
"2.	c #CF4A17",
"3.	c #CE4A17",
"4.	c #ACAE36",
"5.	c #AB9730",
"6.	c #B78C2E",
"7.	c #D36F3A",
"8.	c #D8996A",
"9.	c #FFAA6C",
"0.	c #FFB67B",
"a.	c #FFB57A",
"b.	c #FFAD70",
"c.	c #FF8F49",
"d.	c #D06928",
"e.	c #B79C95",
"f.	c #A48581",
"g.	c #C0511B",
"h.	c #E56625",
"i.	c #ACAF36",
"j.	c #AA812A",
"k.	c #B54F20",
"l.	c #DB854D",
"m.	c #FFD197",
"n.	c #FF8131",
"o.	c #FFA466",
"p.	c #FFBB80",
"q.	c #FFA769",
"r.	c #FFB87C",
"s.	c #FF9451",
"t.	c #AE5720",
"u.	c #B5B5B5",
"v.	c #9F817D",
"w.	c #AA3B11",
"x.	c #AA3C11",
"y.	c #ACB137",
"z.	c #AA822A",
"A.	c #B54D20",
"B.	c #BF5221",
"C.	c #9C3A16",
"D.	c #76583B",
"E.	c #FFC489",
"F.	c #FF8132",
"G.	c #FFC187",
"H.	c #FF8438",
"I.	c #FFBD82",
"J.	c #FF904B",
"K.	c #C96526",
"L.	c #B6A39E",
"M.	c #E2E2E2",
"N.	c #D0CECF",
"O.	c #6E6467",
"P.	c #716566",
"Q.	c #AA7526",
"R.	c #ACB438",
"S.	c #AA842A",
"T.	c #A64322",
"U.	c #CD602B",
"V.	c #ED6F2A",
"W.	c #C35F41",
"X.	c #907167",
"Y.	c #EA803F",
"Z.	c #EABF8A",
"`.	c #EA762C",
" +	c #EA762E",
".+	c #EA772E",
"++	c #E9762E",
"@+	c #FB8032",
"#+	c #FA7D31",
"$+	c #FC7F31",
"%+	c #C25E23",
"&+	c #ABA09F",
"*+	c #DEDEDE",
"=+	c #D1CCCE",
"-+	c #B7A6AC",
";+	c #B8A8AC",
">+	c #C3B7AB",
",+	c #AA882B",
"'+	c #A04634",
")+	c #AF4A38",
"!+	c #DE6B3F",
"~+	c #FBB39B",
"{+	c #E0E0E0",
"]+	c #4F5151",
"^+	c #515252",
"/+	c #515353",
"(+	c #4F5253",
"_+	c #E17638",
":+	c #F47C30",
"<+	c #E06324",
"[+	c #EB6E29",
"}+	c #E86A27",
"|+	c #A83E0D",
"1+	c #4F1400",
"2+	c #440B00",
"3+	c #410D00",
"4+	c #361D03",
"5+	c #4F5716",
"6+	c #AA882C",
"7+	c #BC4619",
"8+	c #BA4F36",
"9+	c #BDA5A3",
"0+	c #F2F3F3",
"a+	c #F3F3F3",
"b+	c #F4F4F4",
"c+	c #767878",
"d+	c #2B3233",
"e+	c #D06C33",
"f+	c #E46626",
"g+	c #EB6C28",
"h+	c #FF7827",
"i+	c #EC5F15",
"j+	c #D04A17",
"k+	c #C64819",
"l+	c #AA6824",
"m+	c #BC461A",
"n+	c #E59969",
"o+	c #FADFBF",
"p+	c #F1F1F1",
"q+	c #989999",
"r+	c #C76427",
"s+	c #FF7726",
"t+	c #E95D15",
"u+	c #C54818",
"v+	c #A96824",
"w+	c #AA8D2D",
"x+	c #7E2F12",
"y+	c #010202",
"z+	c #000608",
"A+	c #00080D",
"B+	c #525455",
"C+	c #D8CED1",
"D+	c #887B7F",
"E+	c #9B360E",
"F+	c #C24719",
"G+	c #A97427",
"H+	c #ADBB3A",
"I+	c #577724",
"J+	c #AC561F",
"K+	c #F07B32",
"L+	c #203033",
"M+	c #2F3537",
"N+	c #9B350E",
"O+	c #A97326",
"P+	c #818C29",
"Q+	c #361000",
"R+	c #AD551B",
"S+	c #F37C31",
"T+	c #4F5050",
"U+	c #EEEFEF",
"V+	c #F2F2F3",
"W+	c #D8CDD1",
"X+	c #CAB9BE",
"Y+	c #803012",
"Z+	c #BE4619",
"`+	c #C14719",
" @	c #AC7B28",
".@	c #ADB738",
"+@	c #EDCD88",
"@@	c #F3CF8E",
"#@	c #E9D6B9",
"$@	c #C1B9B7",
"%@	c #AA551E",
"&@	c #EA762D",
"*@	c #FD9D76",
"=@	c #86746F",
"-@	c #D4C9CD",
";@	c #C8B6BC",
">@	c #808126",
",@	c #AE882B",
"'@	c #AE7F29",
")@	c #ACB337",
"!@	c #EACD86",
"~@	c #FDA362",
"{@	c #FF9D5D",
"]@	c #CE8A58",
"^@	c #8B7E6F",
"/@	c #BEBEBE",
"(@	c #E7E7E7",
"_@	c #C3B9B7",
":@	c #FE8132",
"<@	c #DD5D21",
"[@	c #E26113",
"}@	c #9B807B",
"|@	c #B9ABB0",
"1@	c #ACB237",
"2@	c #ACB036",
"3@	c #E6CC82",
"4@	c #FEA769",
"5@	c #C86B46",
"6@	c #C26140",
"7@	c #C26241",
"8@	c #C16341",
"9@	c #E7763A",
"0@	c #D26A28",
"a@	c #BC806B",
"b@	c #BFBFBF",
"c@	c #EF722B",
"d@	c #E16224",
"e@	c #FE7422",
"f@	c #E55B17",
"g@	c #B64212",
"h@	c #8B6666",
"i@	c #B2A2A7",
"j@	c #CB6D46",
"k@	c #D76E3D",
"l@	c #DA6E3C",
"m@	c #D96E3D",
"n@	c #F07A37",
"o@	c #B6B3B4",
"p@	c #D2C8CB",
"q@	c #9D898C",
"r@	c #B1571C",
"s@	c #E65B15",
"t@	c #D14C17",
"u@	c #722508",
"v@	c #966C69",
"w@	c #9D8C5D",
"x@	c #9CAA33",
"y@	c #D9C873",
"z@	c #D3A67B",
"A@	c #FB863F",
"B@	c #DD713C",
"C@	c #EF7A38",
"D@	c #EA7739",
"E@	c #E5753A",
"F@	c #E26E2A",
"G@	c #98534A",
"H@	c #9C8D92",
"I@	c #BFAEB4",
"J@	c #240000",
"K@	c #E85C15",
"L@	c #D04B17",
"M@	c #993813",
"N@	c #9A3C19",
"O@	c #D9A472",
"P@	c #FC863D",
"Q@	c #DC703C",
"R@	c #D06A3F",
"S@	c #D16B3E",
"T@	c #B43F12",
"U@	c #423B3E",
"V@	c #938787",
"W@	c #7E8526",
"X@	c #BE461A",
"Y@	c #AE431B",
"Z@	c #AA7A28",
"`@	c #ACAA35",
" #	c #A74B1D",
".#	c #D56B3B",
"+#	c #CC683F",
"@#	c #F27B37",
"##	c #D16A3F",
"$#	c #D56333",
"%#	c #33380B",
"&#	c #7C8727",
"*#	c #AA872B",
"=#	c #ACAC35",
"-#	c #AA832A",
";#	c #9A4F3B",
">#	c #F17A35",
",#	c #E97739",
"'#	c #CF693F",
")#	c #DB6B37",
"!#	c #F77A2F",
"~#	c #AA4A3C",
"{#	c #BE4314",
"]#	c #8B5D1A",
"^#	c #A97E29",
"/#	c #E2742D",
"(#	c #AF5842",
"_#	c #AB5745",
":#	c #DC6C38",
"<#	c #DB622C",
"[#	c #D1663A",
"}#	c #C96B20",
"|#	c #996E26",
"1#	c #9A523C",
"2#	c #DB6C37",
"3#	c #DC622A",
"4#	c #B24A36",
"5#	c #BC4A2F",
"6#	c #B14A37",
"7#	c #CD4A17",
"8#	c #C46A21",
"9#	c #997026",
"0#	c #C04F1B",
"a#	c #AE4937",
"b#	c #B34933",
"c#	c #CB4A1B",
"d#	c #CC4A1C",
"e#	c #A96723",
"f#	c #A84C1E",
"g#	c #9D4B36",
"h#	c #AE4A38",
"i#	c #C54B1A",
"j#	c #A96C25",
"k#	c #AB932E",
"l#	c #A97527",
"                                                                                                                                ",
"    .                               .                                                                                           ",
"      .                               .                     .                               .                       .           ",
"                                                              .                               .                       .         ",
"                                                                                                                                ",
"                .                               .                                                                               ",
"              .                               .                         .                               .                       ",
"                                                                      .                               .                       . ",
"                                                                                                                                ",
"                                                                                                                                ",
"                                                                                                                                ",
"                                                                                                                                ",
"                                                                                                                                ",
"                                                                                                                                ",
"                                                                                                                                ",
"                                                                                                                                ",
"                                                                                                                                ",
"                  .                 .                                         + @ @ @ #                                         ",
"                .                     .                         $ % % & * = - ; @ > > , '   .                                   ",
"                                                          ) ! ~ { ] ^ / ( _ : @ < [ } } | 1   .                                 ",
"                                                        2 3 4 5 6 7 8 9 0 a b c d e f f g h                                     ",
"      .                                         .     i j k l m n o p q r s t u v w f f g h                                     ",
"        .                                     .     x y z A B C D E F q r s t G H I f f J K L           .             .         ",
"                                                    M N O P Q R S T U V W X Y Z f f f f `  ...        .                 .       ",
"                                                    +.@.#.$.%.&.*.f f =.-.r ;.>.,.f f ` '. ...                                  ",
"                                                    ).!.~.{.].^./.(._.:.<.W q [.}.|.1.'.2.3...                                  ",
"                                                4.5.6.7.8.9.f 0.(.a.b.c.d.e.W q f.g.h.2.2.3...                                  ",
"                                              i.j.!.k.l.@ m.n.o.p.q.r.s.f t.u.r q v.w.w.w.x...                                  ",
"                                            y.z.A.B.C.D.E.m.F.G.H.I.J.f f K.L.M.r N.O.O.O.P.Q.                                  ",
"    .                               .     R.S.T.U.V.W.X.Y.Z.`. +.+++@+f #+$+%+&+*+=+-+-+;+>+.       .                           ",
"      .                               .   ,+!.'+)+!+~+{+]+^+/+/+/+(+_+:+<+[+}+|+1+2+3+4+5+    .       .                         ",
"                                          6+!.7+8+9+0+r a+a+a+a+a+b+c+d+e+f+g+h+i+j+k+l+                                        ",
"                                          6+..m+n+o+p+p+r r r r r r a+a+q+r+s+t+2.2.u+v+                                        ",
"                .                           w+x+y+z+A+A+B+b+a+r r r r r C+D+E+2.2.F+G+                          .               ",
"              .                             H+I+J+@+@+@+K+L+M+a+r r r r C+D+N+2.2.F+O+                        .                 ",
"                                              P+Q+R+f f *.:+S+T+U+V+r W+X+D+Y+Z+`+ @.@                                          ",
"                                  +@@@@@@@@@@@#@*+$@%@f f f f &@*@=@M.-@;@D+>@,@'@)@                                            ",
"                                !@~@{@{@{@{@]@^@/@(@_@%@f :@<@f f [@}@|@;@D+P+1@2@                                              ",
"                              3@4@5@6@7@8@9@++0@a@b@(@$@R+f c@d@e@f@g@h@i@D+P+                                                  ",
"                              > j@k@l@m@m@n@f f  +a@o@p@q@r@'.i+s@t@2.u@v@w@x@                                                  ",
"                              y@z@A@f B@C@f f D@E@F@G@H@I@J@j+K@L@2.2.M@N@5.                                                    ",
"                                O@P@Q@R@C@f D@S@E@c@T@U@V@W@X@X@X@X@X@Y@Z@`@                                                    ",
"                                 #.#+#@#f D@##E@n@$#T@%#&#H+*#6+6+6+6+6+=#                                                      ",
"                                -#;#>#,#B '#)#!#m@~#{#]#                                                                        ",
"                                  ^#/#(#_#:#<#<#[#~#2.}#                                                                        ",
"                  .                 |#1#2#3#4#R 5#6#7#8#                  .                 .                     .             ",
"                .                     9#0#a#b#c#d#2.u+e#                .                     .                 .               ",
"                                        -#f#f#g#h#3.i#j#                                                                        ",
"                                              k#....l#                                                                          ",
"      .                                         .             .                                       .                         ",
"        .                                     .                 .                                       .                       ",
"                                                                                                                                ",
"                                                                                                                                ",
"                                                      .                                                                         ",
"                                                                                                                                ",
"                                                                                                                                ",
"  .                               .                                                                               .             ",
"    .                               .                     .                               .                         .           ",
"                                                            .                               .                                   ",
"                                                                                                                                ",
"              .                               .                                                                               . ",
"            .                               .                         .                               .                     .   ",
"                                                                    .                               .                           ",
"                                                                                                                                "};
